<svg width="220" height="98" viewBox="0 0 220 98" fill="none" xmlns="http://www.w3.org/2000/svg">
<rect x="0.5" y="0.5" width="219" height="97" rx="4.5" stroke="#D0D0D0"/>
<g clip-path="url(#clip0_1059_3349)">
<path d="M69.8594 63.3033V44.955H72.229L83.4385 59.7357V44.9554H85.6791V63.3033H83.3098L72.1014 48.3928V63.3033H69.8594ZM103.869 62.5846C102.392 63.1501 100.798 63.4318 99.0903 63.4318C92.456 63.4318 89.1373 60.2455 89.1373 53.8729C89.1373 47.8422 92.3399 44.8265 98.7437 44.8265C100.581 44.8265 102.289 45.0839 103.868 45.5979V47.6503C102.289 47.0514 100.666 46.7519 98.9999 46.7519C94.0048 46.7519 91.5079 49.1261 91.5079 53.8729C91.5079 58.9619 93.9659 61.5079 98.8862 61.5079C99.6709 61.5079 100.542 61.4048 101.499 61.1986V54.9635H103.869V62.5846ZM107.648 56.2207V44.9561H110.015V56.2203C110.015 59.7444 111.767 61.5086 115.268 61.5086C118.769 61.5086 120.521 59.7444 120.521 56.2203V44.9561H122.89V56.2203C122.89 61.0294 120.35 63.4325 115.269 63.4325C110.188 63.4325 107.648 61.0297 107.648 56.2207H107.648ZM129.487 44.955V61.3794H139.07V63.3033H127.118V44.955H129.487ZM142.489 63.3037H140.03L149.137 42.5352L158.244 63.3037H155.619L153.248 57.529H147.191L147.844 55.6067H152.456L149.035 47.291L142.489 63.3037ZM160.743 63.3033V44.955H168.557C172.041 44.955 173.783 46.4228 173.783 49.356C173.783 51.7431 172.08 53.5097 168.672 54.6547L174.961 63.3033H171.836L166.009 55.0537V53.5024C169.509 52.9448 171.259 51.5975 171.259 49.4601C171.259 47.767 170.286 46.9187 168.34 46.9187H163.112V63.304H160.743V63.3033ZM183.839 44.955V58.0172C183.839 61.5413 181.768 63.3033 177.626 63.3033V61.3787C180.188 61.3787 181.469 60.257 181.469 58.0172V44.955H183.839ZM188.066 62.6615V60.4802C189.988 61.1642 192.063 61.5075 194.292 61.5075C197.443 61.5075 199.019 60.3528 199.019 58.0412C199.019 56.0772 197.857 55.091 195.534 55.091H193.177C189.343 55.091 187.425 53.424 187.425 50.0876C187.425 46.5809 189.881 44.8258 194.792 44.8258C196.927 44.8258 198.912 45.0846 200.748 45.5972V47.7785C198.911 47.0935 196.927 46.7512 194.792 46.7512C191.462 46.7512 189.797 47.8638 189.797 50.0876C189.797 52.0541 190.923 53.0382 193.177 53.0382H195.534C199.436 53.0382 201.389 54.7072 201.389 58.0412C201.389 61.635 199.023 63.4318 194.291 63.4318C192.063 63.4318 189.988 63.1741 188.066 62.6615Z" fill="#CCCCCC"/>
<path d="M70.457 62.7039V44.3555H72.8263L84.0347 59.1366V44.3555H86.2768V62.7039H83.9072L72.698 47.7929V62.7035L70.457 62.7039ZM104.466 61.9851C102.989 62.5506 101.396 62.832 99.688 62.832C93.053 62.832 89.7349 59.6464 89.7349 53.2731C89.7349 47.2427 92.9375 44.2267 99.3427 44.2267C101.178 44.2267 102.887 44.4844 104.466 44.9977V47.0502C102.887 46.4512 101.263 46.1517 99.5986 46.1517C94.6035 46.1517 92.1059 48.5263 92.1059 53.2731C92.1059 58.3621 94.5649 60.908 99.4839 60.908C100.269 60.908 101.141 60.8053 102.098 60.5988V54.3634H104.466L104.466 61.9851ZM108.245 55.6205V44.3545H110.613V55.6205C110.613 59.1446 112.364 60.9073 115.866 60.9073C119.367 60.9073 121.118 59.1439 121.118 55.6205V44.3545H123.487V55.6205C123.487 60.4292 120.947 62.8313 115.866 62.8313C110.785 62.8313 108.245 60.4296 108.245 55.6205ZM130.084 44.3545V60.7788H139.666V62.7028H127.716V44.3545H130.084ZM143.086 62.7035H140.627L149.735 41.9336L158.842 62.7035H156.215L153.846 56.9291H147.787L148.442 55.0052H153.052L149.633 46.6894L143.086 62.7035ZM161.34 62.7039V44.3555H169.154C172.639 44.3555 174.379 45.8223 174.379 48.7565C174.379 51.1426 172.677 52.9102 169.27 54.0548L175.559 62.7039H172.432L166.605 54.4536V52.9008C170.106 52.3436 171.857 50.9977 171.857 48.8585C171.857 47.1658 170.883 46.3189 168.936 46.3189H163.71V62.7039H161.34Z" fill="white"/>
<path d="M184.436 44.3558V57.4183C184.436 60.9434 182.365 62.7041 178.223 62.7041V60.7798C180.785 60.7798 182.066 59.6574 182.066 57.4176V44.3554H184.436L184.436 44.3558ZM188.662 62.0623V59.8813C190.585 60.5652 192.659 60.9086 194.888 60.9086C198.039 60.9086 199.615 59.7532 199.615 57.4433C199.615 55.4779 198.453 54.4928 196.13 54.4928H193.772C189.939 54.4928 188.021 52.8247 188.021 49.4883C188.021 45.9817 190.476 44.2266 195.389 44.2266C197.522 44.2266 199.508 44.4856 201.345 44.9982V47.1796C199.507 46.4942 197.522 46.1523 195.389 46.1523C192.057 46.1523 190.392 47.2645 190.392 49.4883C190.392 51.4552 191.518 52.4389 193.772 52.4389H196.13C200.031 52.4389 201.985 54.1073 201.985 57.443C201.985 61.0364 199.62 62.8326 194.888 62.8326C192.659 62.8326 190.584 62.5749 188.662 62.0623Z" fill="#A6120D"/>
<path d="M45.5379 30.2269L24.1445 37.7682L27.5255 65.8433L45.5609 75.7725L63.689 65.7086L67.0683 37.6348L45.5383 30.2266L45.5379 30.2269Z" fill="#B3B3B3"/>
<path d="M64.9341 39.2558L45.4883 32.6133V73.3989L61.7854 64.3643L64.9348 39.2558H64.9341Z" fill="#A6120D"/>
<path d="M26.5469 39.3763L29.4435 64.4848L45.4893 73.3996V32.6133L26.5469 39.3763Z" fill="#DD1B16"/>
<path d="M50.8419 54.3285L45.489 56.8358H39.8469L37.195 63.4804L32.2617 63.572L45.489 34.0977L50.8419 54.3285ZM50.3242 53.0665L45.5245 43.548L41.5872 52.9025H45.4886L50.3245 53.0662L50.3242 53.0665Z" fill="#F2F2F2"/>
<path d="M45.4886 34.0977L45.5241 43.548L49.9915 52.9098H45.4987L45.4883 56.8299L51.7012 56.8358L54.6049 63.573L59.325 63.6608L45.4886 34.0977Z" fill="#B3B3B3"/>
</g>
<defs>
<clipPath id="clip0_1059_3349">
<rect width="178" height="46" fill="white" transform="translate(24 30)"/>
</clipPath>
</defs>
</svg>
