<svg width="220" height="98" viewBox="0 0 220 98" fill="none" xmlns="http://www.w3.org/2000/svg">
<rect x="0.5" y="0.5" width="219" height="97" rx="4.5" stroke="#D0D0D0"/>
<g clip-path="url(#clip0_1063_3234)">
<path d="M80.1811 87L59.5889 81.2974L55 29.9531H105.424L100.83 81.2893L80.1811 87Z" fill="#264DE4"/>
<path d="M96.8964 78.0215L100.822 34.1523H80.2109V82.6361L96.8964 78.0215Z" fill="#2965F1"/>
<path d="M65.5234 53.1953L66.0892 59.4924H80.2155V53.1953H65.5234Z" fill="#EBEBEB"/>
<path d="M64.3828 40.4492L64.9566 46.7464H80.2117V40.4492H80.1899H64.3828Z" fill="#EBEBEB"/>
<path d="M80.2114 69.5493L80.1837 69.5566L73.1534 67.6629L72.704 62.6406H69.2878H66.3672L67.2516 72.5281L80.1824 76.109L80.2114 76.1009V69.5493Z" fill="#EBEBEB"/>
<path d="M66.8672 16H74.5128V19.1895H70.0644V22.3789H74.5128V25.5684H66.8672V16Z" fill="white"/>
<path d="M76.0391 16H83.6847V18.7734H79.2363V19.3281H83.6847V25.707H76.0391V22.7949H80.4874V22.2402H76.0391V16Z" fill="white"/>
<path d="M85.2188 16H92.8643V18.7734H88.416V19.3281H92.8643V25.707H85.2188V22.7949H89.6671V22.2402H85.2188V16Z" fill="white"/>
<path d="M94.8609 53.1948L96.0005 40.4492H80.1875V46.7464H89.0825L88.5081 53.1948H80.1875V59.4919H87.9607L87.228 67.6589L80.1875 69.5545V76.1059L93.1286 72.528L93.2235 71.4642L94.7069 54.8858L94.8609 53.1948Z" fill="white"/>
<path d="M165.002 29.9531L160.408 81.2893L139.759 87L119.167 81.2974L114.578 29.9531H165.002Z" fill="#E44D26"/>
<path d="M139.789 82.6361L156.475 78.0215L160.4 34.1523H139.789V82.6361Z" fill="#F16529"/>
<path d="M130.86 46.7464H139.79V40.4492H139.768H123.961L124.112 42.1387L125.664 59.4919H139.79V53.1948H131.437L130.86 46.7464Z" fill="#EBEBEB"/>
<path d="M132.282 62.6406H128.866H125.945L126.83 72.5281L139.76 76.109L139.79 76.1009V69.5493L139.762 69.5566L132.732 67.6629L132.282 62.6406Z" fill="#EBEBEB"/>
<path d="M119.273 16H122.481V19.1617H125.416V16H128.624V25.5745H125.416V22.3684H122.482V25.5745H119.274L119.273 16Z" fill="white"/>
<path d="M132.84 19.175H130.016V16H138.873V19.175H136.048V25.5745H132.84L132.84 19.175Z" fill="white"/>
<path d="M140.281 16H143.626L145.684 19.3642L147.739 16H151.086V25.5745H147.891V20.8288L145.684 24.2331H145.629L143.42 20.8288V25.5745H140.281V16Z" fill="white"/>
<path d="M152.68 16H155.889V22.4097H160.4V25.5745H152.68V16Z" fill="white"/>
<path d="M139.766 59.4924H147.539L146.806 67.6593L139.766 69.555V76.1064L152.707 72.5285L152.802 71.4646L154.285 54.8863L154.439 53.1953H152.738H139.766V59.4924Z" fill="white"/>
<path d="M139.766 46.7311V46.7464H154.993H155.013L155.14 45.331L155.428 42.1387L155.579 40.4492H139.766V44.3603V46.7311Z" fill="white"/>
</g>
<defs>
<clipPath id="clip0_1063_3234">
<rect width="110" height="71" fill="white" transform="translate(55 16)"/>
</clipPath>
</defs>
</svg>
