<svg xmlns="http://www.w3.org/2000/svg" version="1.1" xmlns:xlink="http://www.w3.org/1999/xlink" width="50" height="50" x="0" y="0" viewBox="0 0 682.667 682.667" style="enable-background:new 0 0 512 512" xml:space="preserve" class=""><g><defs><clipPath id="a" clipPathUnits="userSpaceOnUse"><path d="M0 512h512V0H0Z" fill="#000000" opacity="1" data-original="#000000" class=""></path></clipPath></defs><g clip-path="url(#a)" transform="matrix(1.33333 0 0 -1.33333 0 682.667)"><path d="M0 0h-83.045v16.095c0 10.416 8.443 18.858 18.858 18.858h45.329C-8.442 34.953 0 26.511 0 16.095Z" style="fill-opacity:1;fill-rule:nonzero;stroke:none" transform="translate(477.65 185.596)" fill="#695e66" data-original="#695e66" class=""></path><path d="M0 0c-11.585 2.333-19.92 12.51-19.92 24.327v37.027h-61.309V24.327c0-11.817-8.335-21.994-19.92-24.327l-4.65-.934a.998.998 0 0 0 .034-.032c13.051-11.277 31.272-21.113 55.19-21.656 23.919.543 42.139 10.379 55.19 21.656l.035.032L0 0" style="fill-opacity:1;fill-rule:nonzero;stroke:none" transform="translate(244.435 305.596)" fill="#fff0dc" data-original="#fff0dc" class=""></path><path d="M0 0c-.023 5.7-4.609 10.303-10.242 10.278l-3.841-.015-.065 15.481c-.135 32.437-26.902 44.36-56.58 44.569-29.547-.459-56.253-12.49-56.118-45.049l.045-10.916.019-4.567-3.64-.002c-8.102-.004-14.665-6.575-14.66-14.676l.01-13.3c.006-8.099 6.575-14.66 14.674-14.657l3.765.002c.381-14.98 6.66-29.374 17.938-39.119 9.079-7.845 21.823-14.673 38.622-14.791 16.797.262 29.484 7.198 38.497 15.12 11.196 9.841 17.356 24.288 17.611 39.271l3.857.017C-4.476-32.331.071-27.689.048-21.988z" style="fill-opacity:1;fill-rule:nonzero;stroke:none" transform="translate(264.227 415.397)" fill="#fff0dc" data-original="#fff0dc" class=""></path><path d="M0 0c-1.562.301-5.606 1.109-10.243 2.044a24.692 24.692 0 0 0-8.135 3.225c-.464-.431-.921-.867-1.401-1.282C-29.452-4.371-43-11.644-60.818-11.896c-17.818.252-31.366 7.525-41.038 15.883-.48.415-.938.851-1.401 1.282a24.706 24.706 0 0 0-8.136-3.225C-116.03 1.109-120.074.301-121.636 0c-44.823-8.627-77.218-47.85-77.218-93.495v-65.789H77.218v65.789C77.218-47.85 44.823-8.627 0 0" style="fill-opacity:1;fill-rule:nonzero;stroke:none" transform="translate(254.679 303.553)" fill="#00dfff" data-original="#fc8086" class="" opacity="1"></path><path d="M0 0c-1.562.301-5.606 1.109-10.243 2.044a24.692 24.692 0 0 0-8.135 3.225c-.464-.431-.921-.867-1.401-1.282-5.48-4.735-12.206-9.119-20.245-12.078 31.876-15.705 53.117-48.446 53.116-85.404v-65.789h64.126v65.789C77.218-47.85 44.823-8.627 0 0" style="fill-opacity:1;fill-rule:nonzero;stroke:none" transform="translate(254.679 303.553)" fill="#00dc9b" data-original="#fb636f" class="" opacity="1"></path><path d="M0 0c-.118 7.543-6.267 13.597-13.811 13.597h-61.27c-24.569 0-44.486-19.917-44.486-44.487v-29.398c0-4.318 2.733-8.164 6.811-9.584l10.958-3.816c3.83-1.333 7.83 1.515 7.823 5.571l-.024 20.73c-.001.333.006.663.022.992.614 12.593 16.44 17.815 24.846 8.419 10.105-11.295 30.859-28.506 59.364-21.619 3.239.782 6.595-.723 8.082-3.706l.003-.006a13.181 13.181 0 0 1 16.131-6.565 10.148 10.148 0 0 1 6.811 9.583v38.805c0 7.409-5.943 13.449-13.351 13.57A8.04 8.04 0 0 0 0 0" style="fill-opacity:1;fill-rule:nonzero;stroke:none" transform="translate(243.015 486.674)" fill="#8f818f" data-original="#8f818f"></path><path d="M0 0c-.023 5.7-4.609 10.303-10.242 10.279l-3.841-.016-.065 15.481c-.132 31.73-25.749 43.823-54.644 44.531 2.086-5.023 3.263-10.829 3.291-17.52l.183-85.126c-.256-14.983-6.415-29.43-17.611-39.271-3.716-3.266-8.068-6.355-13.063-8.887 7.242-3.669 15.846-6.162 25.919-6.233 16.797.261 29.484 7.198 38.497 15.12 11.196 9.841 17.355 24.288 17.611 39.271l3.857.017C-4.476-32.331.071-27.689.048-21.988z" style="fill-opacity:1;fill-rule:nonzero;stroke:none" transform="translate(264.227 415.397)" fill="#ffe4c0" data-original="#ffe4c0" class=""></path><path d="M0 0a8.04 8.04 0 0 0-7.909 7.914c-.117 7.543-6.266 13.597-13.81 13.597H-66.41c8.686-7.091 14.151-17.523 14.212-32.119l.082-38.065c9.611-4.2 21.186-6.211 34.44-3.008 3.239.783 6.595-.723 8.082-3.706l.003-.006a13.182 13.182 0 0 1 16.132-6.565 10.148 10.148 0 0 1 6.81 9.583v38.805C13.351-6.161 7.409-.121 0 0" style="fill-opacity:1;fill-rule:nonzero;stroke:none" transform="translate(250.923 478.76)" fill="#786e79" data-original="#786e79" class=""></path><path d="M0 0c-47.807 41.884-119.105 28.036-142.004 22.104a9.83 9.83 0 0 1-7.362-9.527v-33.476H0Z" style="fill-opacity:1;fill-rule:nonzero;stroke:none" transform="translate(194.307 212.033)" fill="#f9f5f8" data-original="#f9f5f8" class=""></path><path d="M0 0c47.807 41.884 119.105 28.036 142.004 22.104a9.832 9.832 0 0 0 7.363-9.527v-33.476H0Z" style="fill-opacity:1;fill-rule:nonzero;stroke:none" transform="translate(194.307 212.033)" fill="#f0ecef" data-original="#f0ecef" class=""></path><path d="M0 0c-13.087 3.39-41.981 9.36-73.265 6.041 8.993-2.757 15.268-11.064 15.268-20.624v-28.421H7.362v33.478A9.832 9.832 0 0 1 0 0" style="fill-opacity:1;fill-rule:nonzero;stroke:none" transform="translate(336.312 234.138)" fill="#e3dfe2" data-original="#e3dfe2" class=""></path><path d="M453.925 11.729H58.075v159.24h395.85z" style="fill-opacity:1;fill-rule:nonzero;stroke:none" fill="#ffd700" data-original="#cfa2a2" class="" opacity="1"></path><path d="M0 0h-23.685a8.744 8.744 0 0 0-8.744 8.744v167.489H0Z" style="fill-opacity:1;fill-rule:nonzero;stroke:none" transform="translate(74.29 11.73)" fill="#e6c088" data-original="#c58e8e" class="" opacity="1"></path><path d="M0 0h-23.686v176.233h32.43V8.744A8.744 8.744 0 0 0 0 0" style="fill-opacity:1;fill-rule:nonzero;stroke:none" transform="translate(461.396 11.73)" fill="#e6c088" data-original="#c58e8e" class="" opacity="1"></path><path d="M0 0h-477.87c-5.229 0-9.468 4.239-9.468 9.469V30.86a9.468 9.468 0 0 0 9.468 9.468H0c5.229 0 9.469-4.239 9.469-9.468V9.469A9.47 9.47 0 0 0 0 0" style="fill-opacity:1;fill-rule:nonzero;stroke:none" transform="translate(494.838 150.806)" fill="#e6c088" data-original="#c58e8e" class="" opacity="1"></path><path d="M0 0h-65.072a9.468 9.468 0 0 0 9.468-9.468v-21.391c0-5.23-4.239-9.469-9.468-9.469H0a9.47 9.47 0 0 1 9.469 9.469v21.391C9.469-4.239 5.229 0 0 0" style="fill-opacity:1;fill-rule:nonzero;stroke:none" transform="translate(494.838 191.134)" fill="#ffd89e" data-original="#b88080" class="" opacity="1"></path><path d="m0 0-53.305 48.335" style="stroke-width:15;stroke-linecap:round;stroke-linejoin:round;stroke-miterlimit:10;stroke-dasharray:none;stroke-opacity:1" transform="translate(473.861 344.654)" fill="none" stroke="#000000" stroke-width="15" stroke-linecap="round" stroke-linejoin="round" stroke-miterlimit="10" stroke-dasharray="none" stroke-opacity="" data-original="#000000" class=""></path><path d="m0 0 34.153 96.174" style="stroke-width:15;stroke-linecap:round;stroke-linejoin:round;stroke-miterlimit:10;stroke-dasharray:none;stroke-opacity:1" transform="translate(446.644 220.549)" fill="none" stroke="#000000" stroke-width="15" stroke-linecap="round" stroke-linejoin="round" stroke-miterlimit="10" stroke-dasharray="none" stroke-opacity="" data-original="#000000" class=""></path><path d="M0 0c0-9.666-7.836-17.502-17.502-17.502-9.666 0-17.502 7.836-17.502 17.502 0 9.666 7.836 17.502 17.502 17.502C-7.836 17.502 0 9.666 0 0" style="fill-opacity:1;fill-rule:nonzero;stroke:none" transform="translate(504.5 333.093)" fill="#695e66" data-original="#695e66" class=""></path><path d="m0 0-48.792-26.98-23.636 42.745 48.791 26.979c9.863 5.454 22.279 1.88 27.733-7.982l3.886-7.031C13.437 17.869 9.862 5.453 0 0" style="fill-opacity:1;fill-rule:nonzero;stroke:none" transform="translate(428.7 397.492)" fill="#695e66" data-original="#695e66" class=""></path><path d="m0 0 45.709-82.662c1.325-2.396 4.427-3.115 6.684-1.566C74.233-69.226 81.517-39.797 68.43-16.13S26.546 17.016 2.228 6.492C-.284 5.405-1.324 2.396 0 0" style="fill-opacity:1;fill-rule:nonzero;stroke:none" transform="translate(329.43 426.628)" fill="#786e79" data-original="#786e79" class=""></path><path d="M0 0v20.899c-47.807 41.884-119.105 28.037-142.004 22.105a9.832 9.832 0 0 1-7.362-9.527V0" style="stroke-width:15;stroke-linecap:round;stroke-linejoin:round;stroke-miterlimit:10;stroke-dasharray:none;stroke-opacity:1" transform="translate(194.307 191.134)" fill="none" stroke="#000000" stroke-width="15" stroke-linecap="round" stroke-linejoin="round" stroke-miterlimit="10" stroke-dasharray="none" stroke-opacity="" data-original="#000000" class=""></path><path d="M0 0c47.807 41.884 119.105 28.036 142.004 22.104a9.832 9.832 0 0 0 7.363-9.527v-33.476" style="stroke-width:15;stroke-linecap:round;stroke-linejoin:round;stroke-miterlimit:10;stroke-dasharray:none;stroke-opacity:1" transform="translate(194.307 212.033)" fill="none" stroke="#000000" stroke-width="15" stroke-linecap="round" stroke-linejoin="round" stroke-miterlimit="10" stroke-dasharray="none" stroke-opacity="" data-original="#000000" class=""></path><path d="M0 0h-477.87c-5.229 0-9.468 4.239-9.468 9.469V30.86a9.468 9.468 0 0 0 9.468 9.468H0c5.229 0 9.469-4.239 9.469-9.468V9.469A9.47 9.47 0 0 0 0 0Z" style="stroke-width:15;stroke-linecap:round;stroke-linejoin:round;stroke-miterlimit:10;stroke-dasharray:none;stroke-opacity:1" transform="translate(494.838 150.806)" fill="none" stroke="#000000" stroke-width="15" stroke-linecap="round" stroke-linejoin="round" stroke-miterlimit="10" stroke-dasharray="none" stroke-opacity="" data-original="#000000" class=""></path><path d="M0 0c-14.499-12.199-25.195-28.588-30.405-47.119" style="stroke-width:15;stroke-linecap:round;stroke-linejoin:round;stroke-miterlimit:10;stroke-dasharray:none;stroke-opacity:1" transform="translate(89.791 282.954)" fill="none" stroke="#000000" stroke-width="15" stroke-linecap="round" stroke-linejoin="round" stroke-miterlimit="10" stroke-dasharray="none" stroke-opacity="" data-original="#000000" class=""></path><path d="M0 0c-9.613 33.893-37.585 60.578-73.596 67.508-1.562.302-5.606 1.11-10.243 2.045a24.699 24.699 0 0 0-8.135 3.224c-.464-.43-.921-.866-1.401-1.281-9.672-8.358-23.22-15.631-41.039-15.884-17.817.253-31.366 7.526-41.038 15.884-.48.415-.937.851-1.401 1.281a24.69 24.69 0 0 0-8.135-3.224 1844.81 1844.81 0 0 0-10.243-2.045 95.518 95.518 0 0 1-12.705-3.362" style="stroke-width:15;stroke-linecap:round;stroke-linejoin:round;stroke-miterlimit:10;stroke-dasharray:none;stroke-opacity:1" transform="translate(328.274 236.044)" fill="none" stroke="#000000" stroke-width="15" stroke-linecap="round" stroke-linejoin="round" stroke-miterlimit="10" stroke-dasharray="none" stroke-opacity="" data-original="#000000" class=""></path><path d="M0 0h363.42" style="stroke-width:15;stroke-linecap:round;stroke-linejoin:round;stroke-miterlimit:10;stroke-dasharray:none;stroke-opacity:1" transform="translate(74.29 11.73)" fill="none" stroke="#000000" stroke-width="15" stroke-linecap="round" stroke-linejoin="round" stroke-miterlimit="10" stroke-dasharray="none" stroke-opacity="" data-original="#000000" class=""></path><path d="M0 0v-130.332a8.744 8.744 0 0 1 8.744-8.744h23.685V0" style="stroke-width:15;stroke-linecap:round;stroke-linejoin:round;stroke-miterlimit:10;stroke-dasharray:none;stroke-opacity:1" transform="translate(41.86 150.806)" fill="none" stroke="#000000" stroke-width="15" stroke-linecap="round" stroke-linejoin="round" stroke-miterlimit="10" stroke-dasharray="none" stroke-opacity="" data-original="#000000" class=""></path><path d="M0 0v22.979" style="stroke-width:15;stroke-linecap:round;stroke-linejoin:round;stroke-miterlimit:10;stroke-dasharray:none;stroke-opacity:1" transform="translate(470.14 127.826)" fill="none" stroke="#000000" stroke-width="15" stroke-linecap="round" stroke-linejoin="round" stroke-miterlimit="10" stroke-dasharray="none" stroke-opacity="" data-original="#000000" class=""></path><path d="M0 0v-139.076h23.686a8.744 8.744 0 0 1 8.744 8.744v72.276" style="stroke-width:15;stroke-linecap:round;stroke-linejoin:round;stroke-miterlimit:10;stroke-dasharray:none;stroke-opacity:1" transform="translate(437.71 150.806)" fill="none" stroke="#000000" stroke-width="15" stroke-linecap="round" stroke-linejoin="round" stroke-miterlimit="10" stroke-dasharray="none" stroke-opacity="" data-original="#000000" class=""></path><path d="M0 0c0-9.666-7.836-17.502-17.502-17.502-9.666 0-17.502 7.836-17.502 17.502 0 9.666 7.836 17.502 17.502 17.502C-7.836 17.502 0 9.666 0 0Z" style="stroke-width:15;stroke-linecap:round;stroke-linejoin:round;stroke-miterlimit:10;stroke-dasharray:none;stroke-opacity:1" transform="translate(504.5 333.093)" fill="none" stroke="#000000" stroke-width="15" stroke-linecap="round" stroke-linejoin="round" stroke-miterlimit="10" stroke-dasharray="none" stroke-opacity="" data-original="#000000" class=""></path><path d="m0 0 45.709-82.662c1.325-2.396 4.427-3.115 6.684-1.566C74.233-69.226 81.517-39.797 68.43-16.13S26.546 17.016 2.228 6.492C-.284 5.405-1.324 2.396 0 0Z" style="stroke-width:15;stroke-linecap:round;stroke-linejoin:round;stroke-miterlimit:10;stroke-dasharray:none;stroke-opacity:1" transform="translate(329.43 426.628)" fill="none" stroke="#000000" stroke-width="15" stroke-linecap="round" stroke-linejoin="round" stroke-miterlimit="10" stroke-dasharray="none" stroke-opacity="" data-original="#000000" class=""></path><path d="M0 0v10.557c0 10.416-8.442 18.859-18.858 18.859h-45.329c-10.415 0-18.858-8.443-18.858-18.859V0" style="stroke-width:15;stroke-linecap:round;stroke-linejoin:round;stroke-miterlimit:10;stroke-dasharray:none;stroke-opacity:1" transform="translate(477.65 191.134)" fill="none" stroke="#000000" stroke-width="15" stroke-linecap="round" stroke-linejoin="round" stroke-miterlimit="10" stroke-dasharray="none" stroke-opacity="" data-original="#000000" class=""></path><path d="m0 0 24.355 13.468c9.863 5.453 13.437 17.869 7.984 27.731l-3.888 7.03c-5.454 9.863-17.87 13.437-27.732 7.983l-22.601-12.497" style="stroke-width:15;stroke-linecap:round;stroke-linejoin:round;stroke-miterlimit:10;stroke-dasharray:none;stroke-opacity:1" transform="translate(404.344 384.024)" fill="none" stroke="#000000" stroke-width="15" stroke-linecap="round" stroke-linejoin="round" stroke-miterlimit="10" stroke-dasharray="none" stroke-opacity="" data-original="#000000" class=""></path><path d="M0 0v0c-.118 7.543-6.267 13.597-13.811 13.597h-61.27c-24.569 0-44.486-19.917-44.486-44.487v-29.398c0-4.318 2.733-8.164 6.811-9.584l10.958-3.816c3.83-1.333 7.83 1.515 7.823 5.571l-.024 20.73c-.001.333.006.663.022.992.614 12.593 16.44 17.815 24.846 8.419 10.105-11.295 30.859-28.506 59.364-21.619 3.239.782 6.595-.723 8.082-3.706l.003-.006a13.181 13.181 0 0 1 16.131-6.565 10.148 10.148 0 0 1 6.811 9.583v38.805c0 7.409-5.943 13.449-13.351 13.57A8.04 8.04 0 0 0 0 0Z" style="stroke-width:15;stroke-linecap:round;stroke-linejoin:round;stroke-miterlimit:10;stroke-dasharray:none;stroke-opacity:1" transform="translate(243.015 486.674)" fill="none" stroke="#000000" stroke-width="15" stroke-linecap="round" stroke-linejoin="round" stroke-miterlimit="10" stroke-dasharray="none" stroke-opacity="" data-original="#000000" class=""></path><path d="M0 0a14.638 14.638 0 0 1-5.372-11.354l.01-13.299c.006-8.099 6.574-14.66 14.673-14.657l3.766.002c.38-14.98 6.66-29.374 17.937-39.119 9.079-7.845 21.824-14.673 38.622-14.791 16.797.262 29.484 7.197 38.497 15.12 11.197 9.841 17.356 24.288 17.612 39.271l3.857.016c5.632.024 10.179 4.665 10.155 10.367l-.048 21.988a10.355 10.355 0 0 1-1.589 5.474" style="stroke-width:15;stroke-linecap:round;stroke-linejoin:round;stroke-miterlimit:10;stroke-dasharray:none;stroke-opacity:1" transform="translate(124.517 421.853)" fill="none" stroke="#000000" stroke-width="15" stroke-linecap="round" stroke-linejoin="round" stroke-miterlimit="10" stroke-dasharray="none" stroke-opacity="" data-original="#000000" class=""></path><path d="M0 0v-7.794c0-8.803-4.629-16.69-11.777-21.108" style="stroke-width:15;stroke-linecap:round;stroke-linejoin:round;stroke-miterlimit:10;stroke-dasharray:none;stroke-opacity:1" transform="translate(163.206 337.717)" fill="none" stroke="#000000" stroke-width="15" stroke-linecap="round" stroke-linejoin="round" stroke-miterlimit="10" stroke-dasharray="none" stroke-opacity="" data-original="#000000" class=""></path><path d="M0 0c-7.148 4.418-11.777 12.306-11.777 21.108v7.742" style="stroke-width:15;stroke-linecap:round;stroke-linejoin:round;stroke-miterlimit:10;stroke-dasharray:none;stroke-opacity:1" transform="translate(236.293 308.815)" fill="none" stroke="#000000" stroke-width="15" stroke-linecap="round" stroke-linejoin="round" stroke-miterlimit="10" stroke-dasharray="none" stroke-opacity="" data-original="#000000" class=""></path></g></g></svg>