<svg xmlns="http://www.w3.org/2000/svg" version="1.1" xmlns:xlink="http://www.w3.org/1999/xlink" width="50" height="50" x="0" y="0" viewBox="0 0 512 512" style="enable-background:new 0 0 512 512" xml:space="preserve" class=""><g><circle cx="180.423" cy="207.894" r="72.633" style="" fill="#ffd89e" data-original="#ffd89e" class=""></circle><path d="M64.091 421.184h246.945c11.314 0 19.733-10.453 17.322-21.507-15.168-69.556-76.744-119.15-147.934-119.15h-14.28c-62.854 0-117.22 43.787-130.612 105.198-3.975 18.225 9.906 35.459 28.559 35.459z" style="" fill="#00dfff" data-original="#00dfff"></path><path d="M180.423 135.262a72.82 72.82 0 0 0-15 1.56c32.915 6.913 57.633 36.103 57.633 71.073 0 34.97-24.717 64.161-57.633 71.073a72.89 72.89 0 0 0 15 1.559c40.114 0 72.633-32.519 72.633-72.632s-32.519-72.633-72.633-72.633z" style="" fill="#ffc479" data-original="#ffc479"></path><path d="M328.357 399.677c-10.937-50.152-46.002-89.922-91.4-108.21 21.794 20.415 37.669 47.344 44.4 78.21 2.411 11.054-6.009 21.507-17.322 21.507H34.869c-.459 16.062 12.448 30 29.222 30h246.945c11.313 0 19.732-10.454 17.321-21.507z" style="" fill="#00cfff" data-original="#00cfff"></path><path d="m187.961 9.985 12.843 21.601a5.082 5.082 0 0 0 3.249 2.36l24.513 5.539c3.76.85 5.243 5.413 2.7 8.31l-16.575 18.89a5.085 5.085 0 0 0-1.241 3.819l2.306 25.025c.354 3.839-3.528 6.659-7.069 5.136L185.6 90.739a5.085 5.085 0 0 0-4.016 0l-23.087 9.927c-3.542 1.523-7.423-1.297-7.069-5.136l2.306-25.025a5.085 5.085 0 0 0-1.241-3.819l-16.575-18.89c-2.543-2.898-1.06-7.461 2.7-8.31l24.513-5.539a5.085 5.085 0 0 0 3.249-2.36l12.843-21.601c1.97-3.314 6.768-3.314 8.738-.001zM53.789 26.473l10.519 17.692a4.164 4.164 0 0 0 2.661 1.933l20.076 4.537c3.08.696 4.294 4.433 2.212 6.806L75.681 72.912a4.161 4.161 0 0 0-1.016 3.128l1.889 20.496c.29 3.144-2.889 5.454-5.79 4.207l-18.909-8.13a4.167 4.167 0 0 0-3.289 0l-18.909 8.13c-2.901 1.247-6.08-1.062-5.79-4.207l1.889-20.496a4.165 4.165 0 0 0-1.016-3.128L11.165 57.441c-2.083-2.373-.868-6.11 2.212-6.806l20.076-4.537a4.164 4.164 0 0 0 2.661-1.933l10.519-17.692c1.613-2.714 5.543-2.714 7.156 0zM306.833 26.473l-10.519 17.692a4.164 4.164 0 0 1-2.661 1.933l-20.076 4.537c-3.08.696-4.294 4.433-2.212 6.806l13.575 15.471a4.161 4.161 0 0 1 1.016 3.128l-1.889 20.496c-.29 3.144 2.889 5.454 5.79 4.207l18.909-8.13a4.167 4.167 0 0 1 3.289 0l18.909 8.13c2.901 1.247 6.08-1.062 5.79-4.207l-1.889-20.496a4.165 4.165 0 0 1 1.016-3.128l13.575-15.471c2.083-2.373.868-6.11-2.212-6.806l-20.076-4.537a4.164 4.164 0 0 1-2.661-1.933l-10.519-17.692c-1.612-2.714-5.542-2.714-7.155 0z" style="" fill="#ffd700" data-original="#ffd700"></path><path d="M501.872 359.382c0-11.449-9.282-20.731-20.731-20.731l-75.348-.116c-9.872-.015-17.868-8.023-17.868-17.895v-53.537a32.15 32.15 0 0 0-15.01-27.201c-7.458-4.7-17.349-.942-19.827 7.519l-29.943 102.243c-4.798 16.383-19.824 27.64-36.896 27.64h-20.48v106.951h31.676c16.753 0 33.417 3.159 48.781 9.839a121.576 121.576 0 0 0 48.476 10.083l86.438.324c11.45 0 20.731-9.281 20.731-20.731 0-11.449-9.282-20.731-20.731-20.731 11.45 0 20.731-9.282 20.731-20.731 0-11.45-9.282-20.731-20.731-20.731 11.45 0 20.731-9.282 20.731-20.731 0-11.449-9.282-20.731-20.731-20.731 11.45-.002 20.732-9.284 20.732-20.733zm0 0c0-11.449-9.282-20.731-20.731-20.731l-75.348-.116c-9.872-.015-17.868-8.023-17.868-17.895v-53.537a32.15 32.15 0 0 0-15.01-27.201c-7.458-4.7-17.349-.942-19.827 7.519l-29.943 102.243c-4.798 16.383-19.824 27.64-36.896 27.64h-20.48v106.951h31.676c16.753 0 33.417 3.159 48.781 9.839a121.576 121.576 0 0 0 48.476 10.083l86.438.324c11.45 0 20.731-9.281 20.731-20.731 0-11.449-9.282-20.731-20.731-20.731 11.45 0 20.731-9.282 20.731-20.731 0-11.45-9.282-20.731-20.731-20.731 11.45 0 20.731-9.282 20.731-20.731 0-11.449-9.282-20.731-20.731-20.731 11.45-.002 20.732-9.284 20.732-20.733zm-20.732 20.731h-24.62m24.62 41.463h-24.62m24.62 41.462h-24.62" style="" fill="#ffd89e" data-original="#ffd89e" class=""></path><path d="M451.14 338.651c11.45 0 20.731 9.282 20.731 20.731 0 3.271-.758 6.366-2.107 9.117-3.617 7.375-3.617 15.853 0 23.228a20.653 20.653 0 0 1 2.107 9.117c0 3.271-.758 6.366-2.107 9.117-3.617 7.375-3.617 15.853 0 23.228a20.653 20.653 0 0 1 2.075 10.273c-.555 10.103-9.255 17.846-19.373 17.846H265.77v22.945h31.675c16.753 0 33.418 3.159 48.781 9.839a121.575 121.575 0 0 0 48.475 10.083l86.438.324c11.45 0 20.731-9.281 20.731-20.731 0-11.449-9.282-20.73-20.731-20.73 11.45 0 20.731-9.282 20.731-20.731s-9.282-20.731-20.731-20.731c11.45 0 20.731-9.282 20.731-20.731 0-11.449-9.282-20.731-20.731-20.731 11.45 0 20.731-9.282 20.731-20.731s-9.282-20.731-20.731-20.731" style="" fill="#ffc479" data-original="#ffc479"></path><path d="M451.14 380.113h-24.62M451.14 421.576h-24.62" style="" fill="#ffd89e" data-original="#ffd89e" class=""></path><path d="M257.543 500.217h-49.604a8.227 8.227 0 0 1-8.227-8.227V365.52a8.227 8.227 0 0 1 8.227-8.227h49.604a8.227 8.227 0 0 1 8.227 8.227v126.47a8.227 8.227 0 0 1-8.227 8.227z" style="" fill="#00dc9b" data-original="#00dc9b"></path><path d="M114.914 176.485c-4.566 9.506-7.124 20.159-7.124 31.41 0 40.114 32.519 72.633 72.633 72.633s72.633-32.519 72.633-72.633-32.519-72.633-72.633-72.633c-17.352 0-33.283 6.085-45.776 16.238" style="stroke-width:15;stroke-linecap:round;stroke-linejoin:round;stroke-miterlimit:10;" fill="none" stroke="#000000" stroke-width="15" stroke-linecap="round" stroke-linejoin="round" stroke-miterlimit="10" data-original="#000000" class=""></path><path d="M294.506 332.377c-28.022-32.08-69.136-51.85-114.083-51.85h-14.28c-62.854 0-117.22 43.787-130.612 105.198h0c-3.974 18.224 9.906 35.458 28.559 35.458h131.423M187.961 9.985l12.843 21.601a5.082 5.082 0 0 0 3.249 2.36l24.513 5.539c3.76.85 5.243 5.413 2.7 8.31l-16.575 18.89a5.085 5.085 0 0 0-1.241 3.819l2.306 25.025c.354 3.839-3.528 6.659-7.069 5.136L185.6 90.739a5.085 5.085 0 0 0-4.016 0l-23.087 9.927c-3.542 1.523-7.423-1.297-7.069-5.136l2.306-25.025a5.085 5.085 0 0 0-1.241-3.819l-16.575-18.89c-2.543-2.898-1.06-7.461 2.7-8.31l24.513-5.539a5.085 5.085 0 0 0 3.249-2.36l12.843-21.601c1.97-3.314 6.768-3.314 8.738-.001zM53.789 26.473l10.519 17.692a4.164 4.164 0 0 0 2.661 1.933l20.076 4.537c3.08.696 4.294 4.433 2.212 6.806L75.681 72.912a4.161 4.161 0 0 0-1.016 3.128l1.889 20.496c.29 3.144-2.889 5.454-5.79 4.207l-18.909-8.13a4.167 4.167 0 0 0-3.289 0l-18.909 8.13c-2.901 1.247-6.08-1.062-5.79-4.207l1.889-20.496a4.165 4.165 0 0 0-1.016-3.128L11.165 57.441c-2.083-2.373-.868-6.11 2.212-6.806l20.076-4.537a4.164 4.164 0 0 0 2.661-1.933l10.519-17.692c1.613-2.714 5.543-2.714 7.156 0zM306.833 26.473l-10.519 17.692a4.164 4.164 0 0 1-2.661 1.933l-20.076 4.537c-3.08.696-4.294 4.433-2.212 6.806l13.575 15.471a4.161 4.161 0 0 1 1.016 3.128l-1.889 20.496c-.29 3.144 2.889 5.454 5.79 4.207l18.909-8.13a4.167 4.167 0 0 1 3.289 0l18.909 8.13c2.901 1.247 6.08-1.062 5.79-4.207l-1.889-20.496a4.165 4.165 0 0 1 1.016-3.128l13.575-15.471c2.083-2.373.868-6.11-2.212-6.806l-20.076-4.537a4.164 4.164 0 0 1-2.661-1.933l-10.519-17.692c-1.612-2.714-5.542-2.714-7.155 0zM501.872 359.382h0c0-11.449-9.282-20.731-20.731-20.731l-75.348-.116c-9.872-.015-17.868-8.023-17.868-17.895v-53.537a32.15 32.15 0 0 0-15.01-27.201c-7.458-4.7-17.349-.942-19.827 7.519l-29.943 102.243c-4.798 16.383-19.824 27.64-36.896 27.64h-20.48v106.951h31.676c16.753 0 33.417 3.159 48.781 9.839a121.576 121.576 0 0 0 48.476 10.083l86.438.324c11.45 0 20.731-9.281 20.731-20.731h0c0-11.449-9.282-20.731-20.731-20.731 11.45 0 20.731-9.282 20.731-20.731h0c0-11.45-9.282-20.731-20.731-20.731 11.45 0 20.731-9.282 20.731-20.731h0c0-11.449-9.282-20.731-20.731-20.731 11.45-.002 20.732-9.284 20.732-20.733zm0 0h0c0-11.449-9.282-20.731-20.731-20.731l-75.348-.116c-9.872-.015-17.868-8.023-17.868-17.895v-53.537a32.15 32.15 0 0 0-15.01-27.201c-7.458-4.7-17.349-.942-19.827 7.519l-29.943 102.243c-4.798 16.383-19.824 27.64-36.896 27.64h-20.48v106.951h31.676c16.753 0 33.417 3.159 48.781 9.839a121.576 121.576 0 0 0 48.476 10.083l86.438.324c11.45 0 20.731-9.281 20.731-20.731h0c0-11.449-9.282-20.731-20.731-20.731 11.45 0 20.731-9.282 20.731-20.731h0c0-11.45-9.282-20.731-20.731-20.731 11.45 0 20.731-9.282 20.731-20.731h0c0-11.449-9.282-20.731-20.731-20.731 11.45-.002 20.732-9.284 20.732-20.733zm-20.732 20.731h-24.62m24.62 41.463h-24.62m24.62 41.462h-24.62" style="stroke-width:15;stroke-linecap:round;stroke-linejoin:round;stroke-miterlimit:10;" fill="none" stroke="#000000" stroke-width="15" stroke-linecap="round" stroke-linejoin="round" stroke-miterlimit="10" data-original="#000000" class=""></path><path d="M257.543 500.217h-49.604a8.227 8.227 0 0 1-8.227-8.227V365.52a8.227 8.227 0 0 1 8.227-8.227h49.604a8.227 8.227 0 0 1 8.227 8.227v126.47a8.227 8.227 0 0 1-8.227 8.227z" style="stroke-width:15;stroke-linecap:round;stroke-linejoin:round;stroke-miterlimit:10;" fill="none" stroke="#000000" stroke-width="15" stroke-linecap="round" stroke-linejoin="round" stroke-miterlimit="10" data-original="#000000" class=""></path></g></svg>