<svg width="220" height="98" viewBox="0 0 220 98" fill="none" xmlns="http://www.w3.org/2000/svg">
<rect x="0.5" y="0.5" width="219" height="97" rx="4.5" stroke="#D0D0D0"/>
<path d="M68.3672 23.0234V67.188L72.9221 67.2096V46.1882H83.9268V40.6243H72.9221V28.5873H87.2473V23.0234H68.3672ZM95.4704 31.9862C97.122 31.9862 98.4433 30.3192 98.4433 28.2842C98.4433 26.2492 97.1046 24.5822 95.4704 24.5822C93.8189 24.5822 92.4976 26.2492 92.4976 28.2842C92.4976 30.3192 93.8362 31.9862 95.4704 31.9862ZM93.1582 37.5501V67.188H97.7131V37.5501H93.1582Z" fill="white"/>
<path fill-rule="evenodd" clip-rule="evenodd" d="M114.628 36.6836C108.56 36.6836 104.336 43.0701 104.336 50.6474C104.336 58.2246 108.56 64.6112 114.628 64.6112C117.409 64.6112 119.687 63.2689 121.356 61.104V65.0225C121.356 69.9369 118.261 74.0286 114.211 74.0286C112.75 74.0286 111.307 73.3358 110.16 72.3399L107.865 77.276C109.691 78.7481 111.864 79.5924 114.193 79.5924C120.66 79.5924 125.893 73.076 125.893 65.0225V37.5496H121.356V40.1908C119.687 38.0258 117.409 36.6836 114.628 36.6836ZM108.908 50.6474C108.908 45.9495 111.794 42.2475 115.132 42.2475C118.47 42.2475 121.356 45.9495 121.356 50.6474C121.356 55.3453 118.47 59.0473 115.132 59.0473C111.794 59.0473 108.908 55.3453 108.908 50.6474Z" fill="white"/>
<path d="M142.362 42.2475C139.667 42.2475 137.477 45.1052 137.477 48.4608V67.1874H132.922V37.5496H137.477V40.2557C138.815 38.1124 140.78 36.6836 143.353 36.6836C146.552 36.6836 149.003 38.6537 150.429 41.6846C152.011 38.7619 154.584 36.6836 157.696 36.6836C162.894 36.6836 166.127 41.9011 166.145 48.3526V67.1874H161.59V48.4391C161.59 45.0835 159.399 42.2258 156.705 42.2258C154.01 42.2258 151.819 45.0835 151.819 48.4391V67.1874H147.265V48.4391C147.247 45.0835 145.057 42.2475 142.362 42.2475Z" fill="white"/>
<path fill-rule="evenodd" clip-rule="evenodd" d="M190.442 40.9052C188.408 38.2856 185.626 36.6836 182.41 36.6836C175.63 36.6836 170.797 43.8495 170.797 52.3793C170.797 60.9091 175.613 68.075 182.41 68.075C185.626 68.075 188.408 66.4513 190.442 63.8534V67.1874H194.997V37.5496H190.442V40.9052ZM175.369 52.3793C175.369 46.7289 178.846 42.2475 182.914 42.2475C186.965 42.2475 190.459 46.7072 190.459 52.3793C190.459 58.0298 186.982 62.5112 182.914 62.5112C178.846 62.4895 175.369 58.0298 175.369 52.3793Z" fill="white"/>
<path d="M43.3203 51.6411C43.3203 46.3803 46.7452 42.0938 50.9871 42.0938C55.2117 42.0938 58.6539 46.3587 58.6539 51.6411C58.6539 56.9019 55.2291 61.1884 50.9871 61.1884C46.7625 61.1884 43.3203 56.9019 43.3203 51.6411Z" fill="#1ABCFE"/>
<path d="M28 70.7153C28 65.4545 31.4248 61.168 35.6668 61.168H43.3336V70.7153C43.3336 75.9761 39.9087 80.2626 35.6668 80.2626C31.4248 80.2626 28 75.9977 28 70.7153Z" fill="#0ACF83"/>
<path d="M43.3203 23.0216V42.0947H50.9871C55.2117 42.0947 58.6539 37.8298 58.6539 32.5473C58.6539 27.2866 55.2291 23 50.9871 23H43.3203V23.0216Z" fill="#FF7262"/>
<path d="M28 32.5708C28 37.8315 31.4248 42.1181 35.6668 42.1181H43.3336V23.0234H35.6668C31.4248 23.0234 28 27.2883 28 32.5708Z" fill="#F24E1E"/>
<path d="M28 51.6411C28 56.9019 31.4248 61.1884 35.6668 61.1884H43.3336V42.0938H35.6668C31.4248 42.0938 28 46.3803 28 51.6411Z" fill="#A259FF"/>
</svg>
