<svg width="220" height="98" viewBox="0 0 220 98" fill="none" xmlns="http://www.w3.org/2000/svg">
<rect x="0.5" y="0.5" width="219" height="97" rx="4.5" stroke="#D0D0D0"/>
<path d="M53.5248 52.7467C56.0433 52.7467 58.0848 50.7065 58.0848 48.1898C58.0848 45.673 56.0433 43.6328 53.5248 43.6328C51.0064 43.6328 48.9648 45.673 48.9648 48.1898C48.9648 50.7065 51.0064 52.7467 53.5248 52.7467Z" fill="#00D8FF"/>
<path d="M53.5225 58.6326C48.0548 58.7702 42.6009 58.0221 37.3725 56.4174C34.9614 55.6433 32.709 54.4429 30.7225 52.8732C28.9492 51.3542 28.0625 49.7719 28.0625 48.1896C28.0625 45.1516 31.3558 42.2402 36.9292 40.2782C42.3121 38.5641 47.9368 37.7306 53.5858 37.8098C59.6658 37.8098 65.4925 38.6326 69.9892 40.2149C72.6492 41.101 74.8658 42.3035 76.4492 43.6326C78.1592 45.0883 79.0458 46.6073 79.0458 48.1896C79.0458 51.2909 75.3725 54.5187 69.4192 56.4807C64.2592 57.995 58.8996 58.7205 53.5225 58.6326ZM53.5225 40.025C47.6325 40.025 41.8692 40.8478 37.5625 42.3668C33.8892 43.6326 30.1525 45.9744 30.1525 48.1896C30.1525 49.0757 30.8492 50.1516 32.0525 51.2276C33.5092 52.4301 35.5358 53.5694 38.0058 54.3921C43.0103 55.9176 48.229 56.6229 53.4592 56.4807C59.2225 56.4807 64.6058 55.7845 68.6592 54.3921C74.2958 52.5567 76.8292 49.8985 76.8292 48.1896C76.8292 47.3668 76.1958 46.2909 74.9925 45.3415C73.2629 44.0015 71.3125 42.9734 69.2292 42.3035C64.1459 40.7242 58.8453 39.9553 53.5225 40.025Z" fill="#00D8FF"/>
<path d="M43.199 70.9133C42.249 70.9133 41.4257 70.7234 40.7924 70.3437C38.1957 68.8247 37.309 64.5209 38.3857 58.7614C39.5881 53.2472 41.6847 47.9666 44.5924 43.1285C47.3262 38.2672 50.8101 33.8672 54.9157 30.0905C57.0057 28.2551 59.159 26.926 61.059 26.2298C63.149 25.4703 64.9857 25.4703 66.3157 26.2298C69.039 27.8121 69.9257 32.5589 68.659 38.6981C67.4231 43.9132 65.3939 48.908 62.6424 53.5083C60.0209 58.3032 56.666 62.6595 52.699 66.4197C50.5457 68.3184 48.329 69.7108 46.3024 70.407C45.0357 70.7234 44.0857 70.9133 43.199 70.9133ZM46.3657 44.1412C43.5978 48.7714 41.5881 53.8139 40.4124 59.0779C39.7157 62.8753 39.8423 67.2424 41.8057 68.3817C43.2623 69.2045 46.809 68.445 51.1157 64.6475C54.2824 61.8627 57.5757 57.6222 60.6157 52.3057C63.2727 47.9059 65.2379 43.1245 66.4424 38.1285C66.9902 35.8715 67.1189 33.5332 66.8223 31.2298C66.569 29.5842 65.999 28.445 65.1757 28.0019C64.4157 27.5589 63.2123 27.6222 61.7557 28.1285C59.7377 28.9739 57.8754 30.1505 56.2457 31.6095C52.3396 35.2657 49.0087 39.4906 46.3657 44.1412Z" fill="#00D8FF"/>
<path d="M63.8474 70.9106C61.3774 70.9106 58.2107 69.3916 54.9807 66.6068C50.8033 62.8165 47.2734 58.3698 44.5307 53.4422C41.4907 48.189 39.274 42.6827 38.3874 37.9992C37.8174 35.2777 37.754 32.746 38.134 30.7207C38.514 28.5055 39.4007 26.9232 40.7307 26.1637C43.4541 24.5814 48.014 26.227 52.7007 30.3409C56.5599 34.0476 59.8659 38.2892 62.5174 42.9359C65.3964 47.5841 67.4931 52.6728 68.724 57.9992C69.294 60.784 69.3574 63.4422 68.9774 65.5308C68.5341 67.8093 67.584 69.3916 66.254 70.2144C65.5474 70.6987 64.7036 70.9428 63.8474 70.9106ZM46.4307 52.3663C49.3441 57.4295 53.0174 62.0498 56.4374 64.9612C59.414 67.4928 63.2141 69.5814 65.1774 68.4422C66.6341 67.6194 67.7107 64.1384 66.5707 58.5688C65.3687 53.4723 63.3589 48.6006 60.6174 44.1384C58.1309 39.6529 54.9696 35.5758 51.2441 32.0498C49.5418 30.4657 47.5681 29.2008 45.4174 28.3156C43.8974 27.746 42.5674 27.6827 41.8074 28.1258C41.0474 28.5688 40.5407 29.6447 40.224 31.1637C39.9388 33.3143 40.0245 35.4978 40.4774 37.6194C41.3641 42.0498 43.4541 47.303 46.4307 52.3663Z" fill="#00D8FF"/>
<path d="M104.506 64.2668L96.2095 51.2921H89.6861V64.2668H85.6328V31.6719H98.7428C104.696 31.6719 108.939 35.4694 108.939 41.482C108.939 47.3681 104.949 50.5959 100.453 50.9757L109.256 64.2668H104.506ZM104.759 41.482C104.759 37.8111 102.099 35.2795 98.2361 35.2795H89.6861V47.7478H98.2361C102.099 47.7478 104.759 45.1529 104.759 41.482Z" fill="#00D8FF"/>
<path d="M112.867 52.4316C112.867 45.5962 117.744 40.0898 124.521 40.0898C131.677 40.0898 135.857 45.6595 135.857 52.7481V53.6974H116.731C117.047 58.1278 120.151 61.862 125.217 61.862C127.877 61.862 130.664 60.7861 132.501 58.8873L134.274 61.2924C133.036 62.4946 131.567 63.4339 129.956 64.0539C128.345 64.6739 126.626 64.9617 124.901 64.9C117.934 64.8367 112.867 59.8367 112.867 52.4316ZM124.457 43.1278C119.391 43.1278 116.921 47.3683 116.731 50.9759H132.247C132.184 47.4316 129.841 43.1278 124.457 43.1278Z" fill="#00D8FF"/>
<path d="M155.111 64.2671V61.6088C154.117 62.6907 152.9 63.5449 151.545 64.1129C150.189 64.681 148.727 64.9495 147.258 64.9C143.268 64.9 138.961 62.2417 138.961 57.0519C138.961 51.7987 143.204 49.2671 147.258 49.2671C150.488 49.2671 153.148 50.2797 155.111 52.4949V48.2544C155.111 45.0898 152.578 43.2544 149.158 43.2544C146.308 43.2544 144.028 44.2671 141.938 46.5455L140.228 44.0139C142.761 41.3557 145.801 40.0898 149.664 40.0898C154.668 40.0898 158.784 42.3683 158.784 48.0645V64.2671H155.111ZM155.111 59.267V54.8367C153.718 52.8746 151.184 51.9253 148.588 51.9253C145.168 51.9253 142.761 54.0772 142.761 57.1152C142.761 60.0898 145.168 62.2417 148.588 62.2417C151.184 62.2417 153.654 61.2291 155.111 59.267Z" fill="#00D8FF"/>
<path d="M162.266 52.431C162.266 45.4689 167.016 40.0892 174.046 40.0892C178.352 40.0892 180.886 41.8613 182.722 44.2031L180.252 46.4816C179.596 45.4961 178.699 44.6942 177.646 44.1515C176.593 43.6089 175.42 43.3435 174.236 43.3803C169.169 43.3803 166.066 47.2411 166.066 52.4943C166.066 57.7474 169.169 61.6082 174.236 61.6082C176.706 61.6082 178.669 60.6588 180.252 58.5069L182.722 60.7854C181.725 62.1306 180.412 63.2096 178.899 63.9271C177.386 64.6446 175.719 64.9785 174.046 64.8993C167.016 64.836 162.266 59.4563 162.266 52.431ZM188.612 59.3297V43.8867H184.686V40.6588H188.612V34.2031H192.286V40.6588H197.099V43.8867H192.286V58.5702C192.286 60.3424 193.046 61.6082 194.692 61.6082C195.706 61.6082 196.719 61.1651 197.162 60.6588L198.239 63.3803C197.637 63.914 196.936 64.3231 196.175 64.5839C195.414 64.8446 194.608 64.9518 193.806 64.8993C190.322 64.836 188.612 62.874 188.612 59.3297Z" fill="#00D8FF"/>
</svg>
