<svg width="20" height="12" viewBox="0 0 20 12" fill="none" xmlns="http://www.w3.org/2000/svg">
<path d="M6.735 0.455C7.095 0.394999 7.485 0.399999 7.905 0.47C8.285 0.529999 8.62 0.629999 8.91 0.769999C9.17 0.899999 9.34 1.03 9.42 1.16C9.64 1.49 9.685 1.915 9.555 2.435C9.505 2.605 9.42 2.755 9.3 2.885C9.17 3.005 9.01 3.115 8.82 3.215C8.6 3.335 8.38 3.395 8.16 3.395C8.05 3.395 7.97 3.35 7.92 3.26C7.89 3.21 7.895 3.1 7.935 2.93C8.045 2.56 8.005 2.27 7.815 2.06C7.645 1.86 7.225 1.715 6.555 1.625C6.465 1.615 6.375 1.605 6.285 1.595C5.835 1.575 5.44 1.665 5.1 1.865C4.82 2.035 4.625 2.315 4.515 2.705C4.465 2.935 4.465 3.16 4.515 3.38C4.595 3.66 4.745 3.91 4.965 4.13C5.215 4.36 5.635 4.625 6.225 4.925C6.705 5.165 7.07 5.365 7.32 5.525C8.04 5.995 8.465 6.525 8.595 7.115C8.635 7.395 8.63 7.67 8.58 7.94C8.51 8.29 8.36 8.645 8.13 9.005C7.53 9.905 6.605 10.565 5.355 10.985C5.045 11.085 4.73 11.165 4.41 11.225C4.1 11.285 3.735 11.315 3.315 11.315C2.985 11.325 2.7 11.305 2.46 11.255C1.67 11.085 1.04 10.695 0.57 10.085C0.24 9.625 0.18 9.09 0.39 8.48C0.56 7.95 0.865 7.535 1.305 7.235C1.665 6.995 2.04 6.86 2.43 6.83C2.55 6.83 2.63 6.84 2.67 6.86C2.81 6.94 2.835 7.07 2.745 7.25C2.645 7.47 2.435 7.66 2.115 7.82L2.025 7.865L1.98 8.015C1.91 8.235 1.89 8.425 1.92 8.585C1.93 8.745 1.98 8.9 2.07 9.05C2.31 9.4 2.615 9.665 2.985 9.845C3.615 10.135 4.3 10.22 5.04 10.1C6.09 9.91 6.72 9.41 6.93 8.6C7.08 8.03 6.925 7.51 6.465 7.04C6.145 6.73 5.635 6.405 4.935 6.065C4.505 5.845 4.285 5.735 4.275 5.735C3.285 5.155 2.805 4.47 2.835 3.68C2.845 3.38 2.93 3.065 3.09 2.735C3.45 2.015 4.09 1.425 5.01 0.965C5.59 0.685 6.165 0.515 6.735 0.455ZM13.1467 0.439999L13.3267 0.424999H13.3417C13.4217 0.424999 13.4867 0.439999 13.5367 0.47C13.5767 0.489999 13.6067 0.524999 13.6267 0.574999C13.6467 0.614999 13.6367 0.769999 13.5967 1.04C13.5867 1.12 13.5517 1.37 13.4917 1.79C13.4617 2.02 13.4467 2.14 13.4467 2.15C13.4467 2.18 13.5067 2.125 13.6267 1.985C14.0967 1.545 14.5717 1.205 15.0517 0.965C15.5617 0.715 16.0867 0.545 16.6267 0.455C16.9367 0.415 17.2717 0.415 17.6317 0.455C18.1117 0.555 18.4817 0.775 18.7417 1.115C18.8417 1.235 18.9267 1.405 18.9967 1.625C19.0467 1.815 19.0517 2.07 19.0117 2.39C18.8717 2.98 18.5117 3.53 17.9317 4.04C17.5717 4.34 17.1867 4.595 16.7767 4.805L16.6717 4.88L16.7917 4.925C16.9817 5.005 17.1817 5.11 17.3917 5.24C17.9617 5.62 18.3167 6.14 18.4567 6.8C18.4767 6.9 18.4867 7.065 18.4867 7.295C18.4867 7.535 18.4767 7.715 18.4567 7.835C18.3567 8.315 18.1567 8.765 17.8567 9.185C17.2667 9.975 16.4517 10.565 15.4117 10.955C15.1417 11.055 14.8767 11.135 14.6167 11.195C13.9267 11.355 13.3417 11.38 12.8617 11.27C12.4517 11.19 12.0817 11.015 11.7517 10.745C11.5917 10.635 11.4817 10.525 11.4217 10.415C11.3517 10.205 11.4967 9.97 11.8567 9.71C12.1567 9.5 12.4467 9.395 12.7267 9.395C12.8367 9.395 12.9267 9.435 12.9967 9.515C13.0167 9.525 13.0467 9.55 13.0867 9.59C13.1367 9.64 13.2217 9.71 13.3417 9.8C13.7417 10.08 14.2167 10.195 14.7667 10.145C15.5667 10.065 16.1467 9.755 16.5067 9.215C16.6567 8.995 16.7617 8.73 16.8217 8.42C16.8717 8.16 16.8767 7.89 16.8367 7.61C16.7267 7.1 16.4617 6.685 16.0417 6.365C15.7417 6.145 15.3417 5.995 14.8417 5.915C14.5517 5.875 14.2617 5.875 13.9717 5.915C13.8517 5.935 13.7617 5.945 13.7017 5.945C13.6117 5.945 13.5517 5.93 13.5217 5.9C13.3917 5.83 13.3717 5.705 13.4617 5.525C13.5817 5.285 13.8167 5.085 14.1667 4.925C14.2867 4.865 14.4217 4.815 14.5717 4.775C15.9817 4.305 16.8467 3.87 17.1667 3.47C17.2567 3.33 17.3217 3.185 17.3617 3.035C17.4217 2.845 17.4217 2.63 17.3617 2.39C17.3017 2.23 17.2067 2.085 17.0767 1.955C16.8767 1.765 16.5767 1.645 16.1767 1.595C15.7967 1.565 15.4217 1.68 15.0517 1.94C14.8117 2.13 14.5967 2.35 14.4067 2.6C13.6367 3.57 12.9667 5.16 12.3967 7.37C12.1367 8.4 11.8017 9.32 11.3917 10.13C11.2117 10.5 11.0667 10.74 10.9567 10.85C10.6167 11.17 10.2567 11.33 9.87668 11.33C9.79668 11.33 9.73668 11.315 9.69668 11.285C9.61668 11.235 9.57668 11.16 9.57668 11.06L9.80168 10.565C10.2117 9.755 10.5467 8.83 10.8067 7.79C11.2367 6.04 11.5667 4.395 11.7967 2.855C11.8867 2.345 11.9317 2.04 11.9317 1.94L11.6767 2.075C11.3967 2.205 11.1717 2.275 11.0017 2.285C10.9017 2.285 10.8317 2.27 10.7917 2.24C10.7017 2.2 10.6567 2.13 10.6567 2.03C10.6567 1.83 10.8317 1.615 11.1817 1.385C11.3917 1.235 11.9367 0.96 12.8167 0.559999C12.9067 0.509999 12.9617 0.484999 12.9817 0.484999C13.0817 0.454999 13.1367 0.439999 13.1467 0.439999Z" fill="#4D6D00"/>
</svg>
