<svg width="220" height="98" viewBox="0 0 220 98" fill="none" xmlns="http://www.w3.org/2000/svg">
<rect x="0.5" y="0.5" width="219" height="97" rx="4.5" stroke="#D0D0D0"/>
<g clip-path="url(#clip0_1044_3242)">
<path d="M64.3844 34.401C64.356 34.1432 64.1286 34.0286 63.958 34.0286C63.7874 34.0286 60.0629 33.7422 60.0629 33.7422C60.0629 33.7422 57.4756 31.1354 57.1629 30.8776C56.8786 30.5911 56.3384 30.6771 56.1109 30.7344C56.0825 30.7344 55.5423 30.9062 54.6609 31.1927C53.7795 28.6432 52.2727 26.3229 49.5717 26.3229H49.3158C48.5766 25.349 47.6099 24.8906 46.8138 24.8906C40.5589 24.8906 37.5452 32.7682 36.607 36.7786C34.1619 37.5521 32.4276 38.0677 32.2286 38.1536C30.8638 38.5833 30.8354 38.612 30.6648 39.901C30.5227 40.875 26.9688 68.5755 26.9688 68.5755L54.6325 73.7891L69.6442 70.5234C69.6727 70.4661 64.4129 34.6588 64.3844 34.401ZM53.1256 31.5937C52.4433 31.7943 51.6187 32.0521 50.7942 32.3385V31.8229C50.7942 30.276 50.5952 29.0156 50.2256 28.013C51.6472 28.1849 52.5286 29.7604 53.1256 31.5937ZM48.4913 28.3281C48.8609 29.3021 49.1168 30.6771 49.1168 32.5677V32.8542C47.5815 33.3411 45.9609 33.8281 44.2835 34.3724C45.2217 30.763 47.0129 28.987 48.4913 28.3281ZM46.6717 26.5521C46.956 26.5521 47.2403 26.6667 47.4678 26.8385C45.4491 27.7839 43.3168 30.1615 42.4354 34.974C41.0991 35.4036 39.8197 35.776 38.5972 36.1771C39.6207 32.5104 42.1795 26.5521 46.6717 26.5521Z" fill="#95BF47"/>
<path d="M63.9589 33.9714C63.7884 33.9714 60.0638 33.6849 60.0638 33.6849C60.0638 33.6849 57.4766 31.0781 57.1638 30.8203C57.0501 30.7057 56.908 30.6484 56.7942 30.6484L54.7188 73.7891L69.7305 70.5234C69.7305 70.5234 64.4707 34.6589 64.4423 34.401C64.3286 34.1432 64.1295 34.0286 63.9589 33.9714Z" fill="#5E8E3E"/>
<path d="M49.5772 42.3341L47.7576 47.8628C47.7576 47.8628 46.1085 46.9748 44.1468 46.9748C41.2184 46.9748 41.0762 48.8367 41.0762 49.2951C41.0762 51.8159 47.6154 52.7899 47.6154 58.7195C47.6154 63.3888 44.687 66.3966 40.735 66.3966C35.9585 66.3966 33.5703 63.4175 33.5703 63.4175L34.8497 59.1779C34.8497 59.1779 37.3517 61.355 39.4556 61.355C40.8487 61.355 41.4174 60.2664 41.4174 59.4643C41.4174 56.1701 36.0723 56.0268 36.0723 50.5841C36.0723 46.0294 39.3135 41.618 45.8811 41.618C48.3262 41.5893 49.5772 42.3341 49.5772 42.3341Z" fill="white"/>
<path d="M87.1618 52.7331C85.6549 51.931 84.8873 51.2148 84.8873 50.2695C84.8873 49.0664 85.9676 48.293 87.6451 48.293C89.6069 48.293 91.3412 49.0951 91.3412 49.0951L92.7059 44.8841C92.7059 44.8841 91.4549 43.9102 87.7588 43.9102C82.6127 43.9102 79.0304 46.8893 79.0304 51.0716C79.0304 53.4492 80.7078 55.2539 82.9255 56.543C84.7451 57.5456 85.3706 58.2904 85.3706 59.3789C85.3706 60.4961 84.4608 61.4128 82.7833 61.4128C80.3098 61.4128 77.95 60.1237 77.95 60.1237L76.5 64.3346C76.5 64.3346 78.6608 65.7956 82.3 65.7956C87.5882 65.7956 91.4265 63.1602 91.4265 58.4336C91.3696 55.8555 89.4647 54.0794 87.1618 52.7331ZM108.258 43.8529C105.642 43.8529 103.595 45.1133 102.031 47.0039L101.975 46.9753L104.249 35.0586H98.3637L92.6206 65.4232H98.5059L100.468 55.0534C101.235 51.1289 103.254 48.694 105.13 48.694C106.467 48.694 106.978 49.6107 106.978 50.8997C106.978 51.7018 106.922 52.7331 106.723 53.5352L104.505 65.4232H110.39L112.693 53.1628C112.949 51.8737 113.12 50.3268 113.12 49.2669C113.091 45.8581 111.357 43.8529 108.258 43.8529ZM126.425 43.8529C119.318 43.8529 114.626 50.2982 114.626 57.4883C114.626 62.0716 117.441 65.7956 122.729 65.7956C129.695 65.7956 134.386 59.5221 134.386 52.1602C134.415 47.8919 131.97 43.8529 126.425 43.8529ZM123.525 61.2695C121.507 61.2695 120.682 59.5508 120.682 57.3737C120.682 53.9648 122.417 48.4362 125.629 48.4362C127.705 48.4362 128.416 50.2695 128.416 52.0169C128.416 55.6549 126.625 61.2695 123.525 61.2695ZM149.483 43.8529C145.503 43.8529 143.257 47.4049 143.257 47.4049H143.2L143.541 44.2253H138.31C138.054 46.3737 137.571 49.668 137.116 52.1029L133.05 73.8451H138.935L140.584 65.0508H140.726C140.726 65.0508 141.949 65.8242 144.167 65.8242C151.104 65.8242 155.625 58.6628 155.625 51.444C155.596 47.4336 153.805 43.8529 149.483 43.8529ZM143.854 61.3268C142.319 61.3268 141.409 60.4388 141.409 60.4388L142.375 54.9102C143.058 51.1862 144.991 48.7513 147.038 48.7513C148.858 48.7513 149.398 50.4414 149.398 52.0169C149.426 55.8555 147.152 61.3268 143.854 61.3268ZM164.012 35.3451C162.135 35.3451 160.628 36.8633 160.628 38.7826C160.628 40.5299 161.737 41.7617 163.415 41.7617H163.472C165.32 41.7617 166.883 40.5013 166.912 38.3242C166.94 36.5768 165.775 35.3451 164.012 35.3451ZM155.767 65.3945H161.652L165.632 44.3112H159.719M180.644 44.2825H176.55L176.749 43.3086C177.09 41.2747 178.284 39.4987 180.274 39.4987C181.326 39.4987 182.151 39.8138 182.151 39.8138L183.288 35.1445C183.288 35.1445 182.293 34.6289 180.075 34.6289C178 34.6289 175.896 35.2305 174.304 36.6055C172.285 38.3242 171.347 40.8164 170.892 43.3372L170.722 44.3112H167.964L167.082 48.8086H169.84L166.713 65.4232H172.598L175.725 48.8086H179.791L180.644 44.2825ZM194.831 44.3112C194.831 44.3112 191.135 53.6784 189.515 58.806H189.458C189.344 57.1445 188.008 44.3112 188.008 44.3112H181.81L185.364 63.6185C185.421 64.0482 185.392 64.306 185.222 64.5924C184.539 65.9388 183.374 67.2279 182.009 68.1732C180.9 68.9753 179.649 69.5195 178.654 69.8633L180.303 74.9049C181.497 74.6471 183.999 73.6445 186.075 71.668C188.747 69.1471 191.249 65.2227 193.808 59.8945L201.001 44.2825H194.831V44.3112Z" fill="white"/>
</g>
<defs>
<clipPath id="clip0_1044_3242">
<rect width="174" height="55" fill="white" transform="translate(27 23)"/>
</clipPath>
</defs>
</svg>
