<svg width="220" height="98" viewBox="0 0 220 98" fill="none" xmlns="http://www.w3.org/2000/svg">
<rect x="0.5" y="0.5" width="219" height="97" rx="4.5" stroke="#D0D0D0"/>
<g clip-path="url(#clip0_1059_3359)">
<path fill-rule="evenodd" clip-rule="evenodd" d="M35.8055 25H100.774C101.184 25.0017 101.577 25.1496 101.868 25.4115C102.158 25.6734 102.322 26.0281 102.324 26.3985V50.8264L99.8902 49.3429V30.8227H36.8775V65.0923H99.8902V61.4458L102.324 62.4326V65.8243C102.321 66.1117 102.223 66.3918 102.041 66.6281H110.559C111.179 66.6587 111.762 66.9023 112.188 67.3089C112.615 67.7155 112.853 68.2541 112.853 68.814C112.853 69.374 112.615 69.9126 112.188 70.3192C111.762 70.7258 111.179 70.9694 110.559 71H26.4261C26.0968 71.0163 25.7672 70.9718 25.4576 70.8692C25.148 70.7667 24.8648 70.6084 24.6254 70.4038C24.3859 70.1992 24.1951 69.9527 24.0648 69.6794C23.9344 69.406 23.8672 69.1116 23.8672 68.814C23.8672 68.5165 23.9344 68.222 24.0648 67.9487C24.1951 67.6754 24.3859 67.4289 24.6254 67.2243C24.8648 67.0197 25.148 66.8613 25.4576 66.7588C25.7672 66.6563 26.0968 66.6118 26.4261 66.6281H34.538C34.3536 66.3931 34.2549 66.1122 34.2556 65.8243V26.3985C34.2556 26.2148 34.2957 26.033 34.3735 25.8633C34.4514 25.6936 34.5656 25.5395 34.7095 25.4096C34.8535 25.2797 35.0243 25.1767 35.2124 25.1065C35.4004 25.0362 35.602 25 35.8055 25ZM44.8156 27.2546C45.0004 27.2546 45.1811 27.304 45.3347 27.3967C45.4884 27.4893 45.6081 27.6209 45.6788 27.775C45.7495 27.929 45.768 28.0985 45.732 28.2621C45.6959 28.4256 45.607 28.5758 45.4763 28.6937C45.3456 28.8116 45.1791 28.8919 44.9979 28.9244C44.8167 28.9569 44.6288 28.9403 44.4581 28.8764C44.2873 28.8126 44.1414 28.7046 44.0388 28.566C43.9361 28.4273 43.8813 28.2643 43.8813 28.0976C43.8813 27.874 43.9797 27.6596 44.155 27.5015C44.3302 27.3434 44.5678 27.2546 44.8156 27.2546ZM41.5491 27.2546C41.7339 27.2546 41.9145 27.304 42.0682 27.3967C42.2218 27.4893 42.3416 27.6209 42.4123 27.775C42.483 27.929 42.5015 28.0985 42.4655 28.2621C42.4294 28.4256 42.3404 28.5758 42.2098 28.6937C42.0791 28.8116 41.9126 28.8919 41.7314 28.9244C41.5501 28.9569 41.3623 28.9403 41.1915 28.8764C41.0208 28.8126 40.8749 28.7046 40.7722 28.566C40.6696 28.4273 40.6148 28.2643 40.6148 28.0976C40.6148 27.874 40.7132 27.6596 40.8884 27.5015C41.0637 27.3434 41.3013 27.2546 41.5491 27.2546ZM38.2826 27.2546C38.4674 27.2546 38.648 27.304 38.8017 27.3967C38.9553 27.4893 39.0751 27.6209 39.1458 27.775C39.2165 27.929 39.235 28.0985 39.199 28.2621C39.1629 28.4256 39.0739 28.5758 38.9432 28.6937C38.8126 28.8116 38.6461 28.8919 38.4649 28.9244C38.2836 28.9569 38.0958 28.9403 37.925 28.8764C37.7543 28.8126 37.6084 28.7046 37.5057 28.566C37.4031 28.4273 37.3483 28.2643 37.3483 28.0976C37.3483 27.874 37.4467 27.6596 37.6219 27.5015C37.7971 27.3434 38.0348 27.2546 38.2826 27.2546ZM65.9502 67.7717H71.0202C71.1343 67.7717 71.2474 67.792 71.3528 67.8314C71.4583 67.8708 71.5541 67.9286 71.6348 68.0014C71.7155 68.0742 71.7795 68.1607 71.8232 68.2558C71.8669 68.3509 71.8894 68.4529 71.8894 68.5559C71.8894 68.6589 71.8669 68.7609 71.8232 68.856C71.7795 68.9511 71.7155 69.0376 71.6348 69.1104C71.5541 69.1832 71.4583 69.241 71.3528 69.2804C71.2474 69.3198 71.1343 69.3401 71.0202 69.3401H65.9502C65.8361 69.3401 65.7231 69.3198 65.6176 69.2804C65.5122 69.241 65.4164 69.1832 65.3356 69.1104C65.2549 69.0376 65.1909 68.9511 65.1472 68.856C65.1036 68.7609 65.0811 68.6589 65.0811 68.5559C65.0811 68.4529 65.1036 68.3509 65.1472 68.2558C65.1909 68.1607 65.2549 68.0742 65.3356 68.0014C65.4164 67.9286 65.5122 67.8708 65.6176 67.8314C65.7231 67.792 65.8361 67.7717 65.9502 67.7717Z" fill="#333333"/>
<path fill-rule="evenodd" clip-rule="evenodd" d="M50.9778 54.4388C50.3114 54.4388 50.3114 52.2038 50.9778 52.2038H77.7183C78.8286 52.891 80.1204 53.3013 81.4629 53.3932C82.4703 53.4852 83.488 53.4032 84.4614 53.1514L85.8303 54.4584L50.9778 54.4388ZM42.366 54.4388C41.707 54.4388 41.707 52.2038 42.366 52.2038H48.6239C49.283 52.2038 49.283 54.4388 48.6239 54.4388H42.366ZM42.156 49.7662C41.4897 49.7662 41.4897 47.5312 42.156 47.5312H48.4066C49.0657 47.5312 49.0657 49.7662 48.4066 49.7662H42.156ZM50.9778 49.7662C50.3114 49.7662 50.3114 47.5312 50.9778 47.5312H74.1911L74.2635 47.675C74.6329 48.3939 74.9878 49.0997 75.4151 49.7662H50.9778Z" fill="#CCCCCC"/>
<path fill-rule="evenodd" clip-rule="evenodd" d="M80.6073 33.4967H92.9201C93.1854 33.4906 93.4493 33.5321 93.6967 33.6187C93.9441 33.7053 94.17 33.8353 94.3613 34.0013C94.5527 34.1672 94.7056 34.3657 94.8113 34.5853C94.917 34.805 94.9733 35.0413 94.9771 35.2807V42.3712C94.9751 42.8491 94.7639 43.3068 94.3894 43.6447C94.015 43.9826 93.5076 44.1732 92.978 44.1749H88.8279C88.4904 43.5824 88.0639 43.0348 87.5604 42.5477C86.038 41.1279 84.0813 40.1496 81.9399 39.7376C80.8407 39.5209 79.7189 39.4114 78.5938 39.4109V35.2807C78.6014 34.8041 78.8171 34.3493 79.1941 34.0153C79.5711 33.6813 80.0789 33.4949 80.6073 33.4967Z" fill="#83B3D7"/>
<path fill-rule="evenodd" clip-rule="evenodd" d="M62.1558 33.4961H74.4687C74.997 33.4995 75.5025 33.6909 75.8754 34.0286C76.2483 34.3663 76.4586 34.8231 76.4604 35.2998V39.5148C75.4537 39.6063 74.5266 39.737 73.7516 39.8677C72.9056 40.0168 72.1586 40.4602 71.672 41.1022C71.1855 41.7442 70.9985 42.5332 71.1514 43.2986C71.2124 43.6101 71.3298 43.9104 71.4991 44.1874H62.1558C61.6269 44.1857 61.1203 43.9949 60.747 43.6568C60.3737 43.3187 60.1641 42.861 60.1641 42.3837V35.2802C60.1698 34.8063 60.3819 34.3536 60.7546 34.0197C61.1273 33.6859 61.6307 33.4978 62.1558 33.4961Z" fill="#3A91BE"/>
<path fill-rule="evenodd" clip-rule="evenodd" d="M74.375 42.7543C77.7357 44.7736 77.2721 50.0212 81.8061 50.4525C82.4495 50.5081 83.0987 50.4433 83.7131 50.2623C84.3274 50.0812 84.8938 49.7878 85.3769 49.4004C85.934 48.9428 86.2804 48.3131 86.3474 47.6359C86.6371 44.9239 83.8848 43.1529 81.2774 42.617C79.0006 42.2586 76.6682 42.3052 74.4112 42.7543H74.375ZM88.1364 48.1195C87.9654 49.1536 87.3614 50.0892 86.4488 50.7335L89.9109 54.001C91.5061 52.527 92.6622 50.7128 93.2716 48.7273C91.5393 48.6962 89.8166 48.4879 88.1364 48.1065V48.1195ZM94.1407 49.3808C93.4923 51.3016 92.3847 53.0706 90.8959 54.5631L106.953 61.0654C107.288 61.2223 107.643 61.3408 108.011 61.4183C108.295 61.4692 108.59 61.4539 108.866 61.3739C109.142 61.2938 109.391 61.1517 109.59 60.9608C109.788 60.7699 109.929 60.5366 110 60.2828C110.071 60.029 110.07 59.7631 109.995 59.5101C109.835 59.1113 109.525 58.776 109.119 58.5625L94.1407 49.4135V49.3808Z" fill="#333333"/>
</g>
<path d="M126.046 43L122.352 29.9091H124.902L127.261 39.5291H127.382L129.901 29.9091H132.221L134.746 39.5355H134.861L137.219 29.9091H139.77L136.075 43H133.736L131.115 33.8146H131.013L128.386 43H126.046ZM144.657 43.1918C143.672 43.1918 142.822 42.9872 142.106 42.5781C141.395 42.1648 140.847 41.581 140.463 40.8267C140.08 40.0682 139.888 39.1754 139.888 38.1484C139.888 37.1385 140.08 36.2521 140.463 35.4893C140.851 34.7223 141.392 34.1257 142.087 33.6996C142.782 33.2692 143.598 33.054 144.535 33.054C145.14 33.054 145.711 33.152 146.248 33.348C146.789 33.5398 147.267 33.8381 147.68 34.2429C148.098 34.6477 148.426 35.1634 148.664 35.7898C148.903 36.4119 149.022 37.1534 149.022 38.0142V38.7237H140.975V37.1641H146.804C146.8 36.7209 146.704 36.3267 146.517 35.9815C146.329 35.6321 146.067 35.3572 145.73 35.157C145.398 34.9567 145.01 34.8565 144.567 34.8565C144.094 34.8565 143.679 34.9716 143.321 35.2017C142.963 35.4276 142.684 35.7259 142.483 36.0966C142.287 36.4631 142.187 36.8658 142.183 37.3047V38.6662C142.183 39.2372 142.287 39.7273 142.496 40.1364C142.705 40.5412 142.997 40.8523 143.372 41.0696C143.747 41.2827 144.186 41.3892 144.689 41.3892C145.025 41.3892 145.33 41.3423 145.603 41.2486C145.875 41.1506 146.112 41.0078 146.312 40.8203C146.512 40.6328 146.664 40.4006 146.766 40.1236L148.926 40.3665C148.79 40.9375 148.53 41.4361 148.147 41.8622C147.767 42.2841 147.282 42.6122 146.689 42.8466C146.097 43.0767 145.419 43.1918 144.657 43.1918ZM151.082 43V29.9091H153.396V34.8054H153.492C153.611 34.5668 153.78 34.3132 153.997 34.0447C154.214 33.772 154.508 33.5398 154.879 33.348C155.25 33.152 155.723 33.054 156.298 33.054C157.057 33.054 157.741 33.2479 158.35 33.6357C158.964 34.0192 159.449 34.5881 159.807 35.3423C160.17 36.0923 160.351 37.0128 160.351 38.1037C160.351 39.1818 160.174 40.098 159.82 40.8523C159.466 41.6065 158.985 42.1818 158.376 42.5781C157.766 42.9744 157.076 43.1726 156.305 43.1726C155.742 43.1726 155.275 43.0788 154.905 42.8913C154.534 42.7038 154.236 42.478 154.01 42.2138C153.788 41.9453 153.616 41.6918 153.492 41.4531H153.358V43H151.082ZM153.351 38.0909C153.351 38.7259 153.441 39.282 153.62 39.7592C153.803 40.2365 154.065 40.6094 154.406 40.8778C154.751 41.142 155.169 41.2741 155.659 41.2741C156.17 41.2741 156.599 41.1378 156.944 40.8651C157.289 40.5881 157.549 40.2109 157.724 39.7337C157.903 39.2521 157.992 38.7045 157.992 38.0909C157.992 37.4815 157.905 36.9403 157.73 36.4673C157.555 35.9943 157.295 35.6236 156.95 35.3551C156.605 35.0866 156.175 34.9524 155.659 34.9524C155.165 34.9524 154.745 35.0824 154.4 35.3423C154.055 35.6023 153.792 35.9666 153.613 36.4354C153.439 36.9041 153.351 37.456 153.351 38.0909ZM127.727 65H123.291V51.9091H127.817C129.116 51.9091 130.233 52.1712 131.166 52.6953C132.104 53.2152 132.824 53.9631 133.327 54.9389C133.83 55.9148 134.081 57.0824 134.081 58.4418C134.081 59.8054 133.827 60.9773 133.32 61.9574C132.817 62.9375 132.091 63.6896 131.141 64.2138C130.195 64.7379 129.057 65 127.727 65ZM125.663 62.9482H127.612C128.524 62.9482 129.285 62.782 129.894 62.4496C130.504 62.1129 130.962 61.6122 131.268 60.9474C131.575 60.2784 131.729 59.4432 131.729 58.4418C131.729 57.4403 131.575 56.6094 131.268 55.9489C130.962 55.2841 130.508 54.7876 129.907 54.4595C129.31 54.1271 128.569 53.9609 127.683 53.9609H125.663V62.9482ZM140.578 65.1918C139.594 65.1918 138.744 64.9872 138.028 64.5781C137.316 64.1648 136.769 63.581 136.385 62.8267C136.002 62.0682 135.81 61.1754 135.81 60.1484C135.81 59.1385 136.002 58.2521 136.385 57.4893C136.773 56.7223 137.314 56.1257 138.009 55.6996C138.703 55.2692 139.52 55.054 140.457 55.054C141.062 55.054 141.633 55.152 142.17 55.348C142.711 55.5398 143.189 55.8381 143.602 56.2429C144.02 56.6477 144.348 57.1634 144.586 57.7898C144.825 58.4119 144.944 59.1534 144.944 60.0142V60.7237H136.897V59.1641H142.726C142.722 58.7209 142.626 58.3267 142.439 57.9815C142.251 57.6321 141.989 57.3572 141.652 57.157C141.32 56.9567 140.932 56.8565 140.489 56.8565C140.016 56.8565 139.6 56.9716 139.243 57.2017C138.885 57.4276 138.605 57.7259 138.405 58.0966C138.209 58.4631 138.109 58.8658 138.105 59.3047V60.6662C138.105 61.2372 138.209 61.7273 138.418 62.1364C138.627 62.5412 138.919 62.8523 139.294 63.0696C139.669 63.2827 140.108 63.3892 140.61 63.3892C140.947 63.3892 141.252 63.3423 141.525 63.2486C141.797 63.1506 142.034 63.0078 142.234 62.8203C142.434 62.6328 142.586 62.4006 142.688 62.1236L144.848 62.3665C144.712 62.9375 144.452 63.4361 144.069 63.8622C143.689 64.2841 143.203 64.6122 142.611 64.8466C142.019 65.0767 141.341 65.1918 140.578 65.1918ZM154.662 57.777L152.552 58.0071C152.493 57.794 152.388 57.5938 152.239 57.4062C152.094 57.2188 151.898 57.0675 151.651 56.9524C151.404 56.8374 151.101 56.7798 150.743 56.7798C150.262 56.7798 149.857 56.8842 149.529 57.093C149.205 57.3018 149.045 57.5724 149.05 57.9048C149.045 58.1903 149.15 58.4226 149.363 58.6016C149.58 58.7805 149.938 58.9276 150.437 59.0426L152.111 59.4006C153.04 59.6009 153.731 59.9183 154.182 60.353C154.638 60.7876 154.868 61.3565 154.873 62.0597C154.868 62.6776 154.687 63.223 154.329 63.696C153.976 64.1648 153.483 64.5312 152.853 64.7955C152.222 65.0597 151.498 65.1918 150.68 65.1918C149.478 65.1918 148.51 64.9403 147.778 64.4375C147.045 63.9304 146.608 63.2251 146.467 62.3217L148.724 62.1044C148.826 62.5476 149.043 62.8821 149.376 63.108C149.708 63.3338 150.14 63.4467 150.673 63.4467C151.223 63.4467 151.664 63.3338 151.996 63.108C152.333 62.8821 152.501 62.603 152.501 62.2706C152.501 61.9893 152.393 61.7571 152.175 61.5739C151.962 61.3906 151.63 61.25 151.178 61.152L149.503 60.8004C148.562 60.6044 147.865 60.2741 147.413 59.8097C146.961 59.3409 146.738 58.7486 146.742 58.0327C146.738 57.4276 146.902 56.9034 147.234 56.4602C147.571 56.0128 148.037 55.6676 148.634 55.4247C149.235 55.1776 149.927 55.054 150.711 55.054C151.862 55.054 152.768 55.299 153.428 55.7891C154.093 56.2791 154.504 56.9418 154.662 57.777ZM156.781 65V55.1818H159.095V65H156.781ZM157.944 53.7884C157.578 53.7884 157.262 53.6669 156.998 53.424C156.734 53.1768 156.602 52.8807 156.602 52.5355C156.602 52.1861 156.734 51.8899 156.998 51.647C157.262 51.3999 157.578 51.2763 157.944 51.2763C158.315 51.2763 158.63 51.3999 158.89 51.647C159.154 51.8899 159.286 52.1861 159.286 52.5355C159.286 52.8807 159.154 53.1768 158.89 53.424C158.63 53.6669 158.315 53.7884 157.944 53.7884ZM165.744 68.8864C164.913 68.8864 164.199 68.7734 163.603 68.5476C163.006 68.326 162.527 68.0277 162.164 67.6527C161.802 67.2777 161.551 66.8622 161.41 66.4062L163.494 65.9013C163.588 66.093 163.724 66.2827 163.903 66.4702C164.082 66.6619 164.323 66.8196 164.625 66.9432C164.932 67.071 165.318 67.1349 165.782 67.1349C166.439 67.1349 166.982 66.9751 167.412 66.6555C167.843 66.3402 168.058 65.8203 168.058 65.0959V63.2358H167.943C167.824 63.4744 167.649 63.7195 167.419 63.9709C167.193 64.2223 166.892 64.4332 166.517 64.6037C166.147 64.7741 165.68 64.8594 165.118 64.8594C164.363 64.8594 163.679 64.6825 163.066 64.3288C162.456 63.9709 161.971 63.4382 161.608 62.7308C161.25 62.0192 161.071 61.1286 161.071 60.0589C161.071 58.9808 161.25 58.071 161.608 57.3295C161.971 56.5838 162.458 56.0192 163.072 55.6357C163.686 55.2479 164.37 55.054 165.124 55.054C165.699 55.054 166.172 55.152 166.543 55.348C166.918 55.5398 167.216 55.772 167.438 56.0447C167.659 56.3132 167.828 56.5668 167.943 56.8054H168.071V55.1818H170.353V65.1598C170.353 65.9993 170.152 66.6939 169.752 67.2436C169.351 67.7933 168.804 68.2045 168.109 68.4773C167.414 68.75 166.626 68.8864 165.744 68.8864ZM165.763 63.044C166.253 63.044 166.671 62.9247 167.016 62.6861C167.361 62.4474 167.623 62.1044 167.802 61.657C167.981 61.2095 168.071 60.6726 168.071 60.0462C168.071 59.4283 167.981 58.8871 167.802 58.4226C167.627 57.9581 167.368 57.598 167.022 57.3423C166.681 57.0824 166.262 56.9524 165.763 56.9524C165.248 56.9524 164.817 57.0866 164.472 57.3551C164.127 57.6236 163.867 57.9922 163.692 58.4609C163.517 58.9254 163.43 59.4538 163.43 60.0462C163.43 60.647 163.517 61.1733 163.692 61.625C163.871 62.0724 164.133 62.4219 164.478 62.6733C164.828 62.9205 165.256 63.044 165.763 63.044ZM175.038 59.2472V65H172.724V55.1818H174.936V56.8501H175.051C175.277 56.3004 175.637 55.8636 176.131 55.5398C176.63 55.2159 177.245 55.054 177.978 55.054C178.656 55.054 179.246 55.1989 179.749 55.4886C180.256 55.7784 180.648 56.1982 180.925 56.7479C181.206 57.2976 181.345 57.9645 181.341 58.7486V65H179.027V59.1065C179.027 58.4503 178.856 57.9368 178.515 57.5661C178.179 57.1953 177.712 57.0099 177.115 57.0099C176.711 57.0099 176.35 57.0994 176.035 57.2784C175.724 57.4531 175.479 57.7067 175.3 58.0391C175.125 58.3714 175.038 58.7741 175.038 59.2472Z" fill="white"/>
<defs>
<clipPath id="clip0_1059_3359">
<rect width="89" height="46" fill="white" transform="translate(24 25)"/>
</clipPath>
</defs>
</svg>
