<svg width="220" height="98" viewBox="0 0 220 98" fill="none" xmlns="http://www.w3.org/2000/svg">
<rect x="0.5" y="0.5" width="219" height="97" rx="4.5" stroke="#D0D0D0"/>
<g clip-path="url(#clip0_1059_3355)">
<path d="M126.98 42.5312H119.855V43.3042C122.084 43.3042 122.442 43.7927 122.442 46.6832V51.8939C122.442 54.784 122.084 55.3133 119.855 55.3133C118.144 55.0692 116.989 54.1327 115.397 52.3416L113.567 50.3065C116.034 49.8581 117.347 48.271 117.347 46.4795C117.347 44.2411 115.477 42.5312 111.974 42.5312H104.969V43.3042C107.197 43.3042 107.556 43.7927 107.556 46.6832V51.8939C107.556 54.784 107.197 55.3133 104.969 55.3133V56.0866H112.89V55.3133C110.661 55.3133 110.303 54.784 110.303 51.8939V50.4289H110.979L115.397 56.0866H126.98C132.672 56.0866 135.14 52.9933 135.14 49.2884C135.14 45.5842 132.672 42.5312 126.98 42.5312ZM110.303 49.166V43.7526H111.935C113.725 43.7526 114.522 45.0144 114.522 46.4799C114.522 47.9049 113.725 49.1663 111.935 49.1663L110.303 49.166ZM127.1 54.8248H126.821C125.389 54.8248 125.189 54.4587 125.189 52.586V43.7526C125.189 43.7526 126.941 43.7526 127.1 43.7526C131.24 43.7526 131.995 46.846 131.995 49.2479C131.995 51.7308 131.239 54.8248 127.1 54.8248Z" fill="#00749A"/>
<path d="M82.7974 50.6736L85.5439 42.3688C86.3403 39.9672 85.982 39.2754 83.4346 39.2754V38.4609H90.9176V39.2754C88.4101 39.2754 87.8131 39.8859 86.818 42.8576L82.2799 56.7794H81.7627L77.7023 44.0378L73.5631 56.7794H73.0455L68.6274 42.8576C67.6722 39.8859 67.0353 39.2754 64.7266 39.2754V38.4609H73.5631V39.2754C71.2144 39.2754 70.5772 39.8451 71.4135 42.3688L74.0802 50.6736L78.1005 38.4609H78.857L82.7974 50.6736Z" fill="#00749A"/>
<path d="M96.3278 56.6143C91.9496 56.6143 88.3672 53.3173 88.3672 49.2867C88.3672 45.2977 91.95 42 96.3278 42C100.706 42 104.288 45.2977 104.288 49.2867C104.288 53.3173 100.706 56.6143 96.3278 56.6143ZM96.3278 43.2628C92.6663 43.2628 91.3922 46.6411 91.3922 49.2871C91.3922 51.9742 92.6663 55.312 96.3278 55.312C100.03 55.312 101.304 51.9742 101.304 49.2871C101.304 46.6411 100.03 43.2628 96.3278 43.2628Z" fill="#00749A"/>
<path d="M144.967 55.2736V56.0877H135.852V55.2736C138.519 55.2736 138.996 54.5818 138.996 50.5104V43.9977C138.996 39.9264 138.519 39.2754 135.852 39.2754V38.4609H144.091C148.19 38.4609 150.46 40.6185 150.46 43.5092C150.46 46.3181 148.19 48.5161 144.091 48.5161H141.822V50.5101C141.822 54.5818 142.3 55.2736 144.967 55.2736ZM144.091 39.9264H141.822V47.0098H144.091C146.32 47.0098 147.355 45.4224 147.355 43.5092C147.355 41.5553 146.32 39.9264 144.091 39.9264Z" fill="white"/>
<path d="M177.804 52.2604L177.605 52.9929C177.247 54.3363 176.809 54.8248 173.983 54.8248H173.425C171.356 54.8248 170.997 54.3363 170.997 51.4463V49.5739C174.102 49.5739 174.341 49.8584 174.341 51.9755H175.097V45.9098H174.341C174.341 48.0266 174.102 48.3114 170.997 48.3114V43.7526H173.186C176.013 43.7526 176.45 44.2411 176.809 45.5845L177.008 46.3575H177.644L177.366 42.5312H165.664V43.3042C167.892 43.3042 168.251 43.7927 168.251 46.6832V51.8939C168.251 54.5379 167.947 55.204 166.189 55.2989C164.519 55.038 163.372 54.1063 161.803 52.3416L159.972 50.3065C162.44 49.8581 163.754 48.271 163.754 46.4795C163.754 44.2411 161.883 42.5312 158.38 42.5312H151.375V43.3042C153.604 43.3042 153.962 43.7927 153.962 46.6832V51.8939C153.962 54.784 153.604 55.3133 151.375 55.3133V56.0866H159.296V55.3133C157.067 55.3133 156.709 54.784 156.709 51.8939V50.4289H157.386L161.804 56.0866H178.163L178.402 52.2607L177.804 52.2604ZM156.708 49.166V43.7526H158.34C160.131 43.7526 160.928 45.0144 160.928 46.4799C160.928 47.9049 160.131 49.1663 158.34 49.1663L156.708 49.166Z" fill="white"/>
<path d="M185.882 56.6178C184.29 56.6178 182.896 55.7633 182.299 55.2337C182.1 55.4376 181.742 56.0481 181.663 56.6178H180.906V51.0008H181.702C182.021 53.6873 183.852 55.2748 186.2 55.2748C187.474 55.2748 188.509 54.5422 188.509 53.3212C188.509 52.263 187.594 51.4485 185.962 50.6752L183.693 49.5762C182.1 48.8022 180.906 47.4588 180.906 45.668C180.906 43.7141 182.697 42.0454 185.165 42.0454C186.479 42.0454 187.593 42.5339 188.27 43.1036C188.469 42.9408 188.668 42.4927 188.788 42.0039H189.544V46.8078H188.708C188.429 44.8943 187.394 43.3069 185.285 43.3069C184.171 43.3069 183.135 43.9582 183.135 44.9763C183.135 46.0345 183.971 46.6042 185.882 47.4999L188.071 48.5989C189.982 49.5351 190.738 51.042 190.738 52.263C190.738 54.8271 188.548 56.6178 185.882 56.6178Z" fill="white"/>
<path d="M198.148 56.6178C196.555 56.6178 195.162 55.7633 194.565 55.2337C194.366 55.4376 194.008 56.0481 193.929 56.6178H193.172V51.0008H193.968C194.287 53.6873 196.117 55.2748 198.466 55.2748C199.74 55.2748 200.775 54.5422 200.775 53.3212C200.775 52.263 199.859 51.4485 198.227 50.6752L195.958 49.5762C194.366 48.8022 193.172 47.4588 193.172 45.668C193.172 43.7141 194.963 42.0454 197.431 42.0454C198.745 42.0454 199.859 42.5339 200.536 43.1036C200.735 42.9408 200.934 42.4927 201.053 42.0039H201.809V46.8078H200.974C200.695 44.8943 199.66 43.3069 197.551 43.3069C196.436 43.3069 195.401 43.9582 195.401 44.9763C195.401 46.0345 196.237 46.6042 198.148 47.4999L200.336 48.5989C202.247 49.5351 203.003 51.042 203.003 52.263C203.003 54.8271 200.814 56.6178 198.148 56.6178Z" fill="white"/>
<path d="M24.9219 46.9996C24.9219 54.1304 28.9739 60.2928 34.8497 63.213L26.447 39.668C25.4696 41.9085 24.9219 44.3879 24.9219 46.9996Z" fill="#464342"/>
<path d="M54.4222 46.0897C54.4222 43.8633 53.6402 42.3214 52.9695 41.1213C52.0766 39.6373 51.2396 38.3807 51.2396 36.8967C51.2396 35.2407 52.4677 33.6991 54.1976 33.6991C54.2757 33.6991 54.3498 33.7091 54.4259 33.7135C51.2919 30.7772 47.1165 28.9844 42.5305 28.9844C36.3765 28.9844 30.9622 32.2135 27.8125 37.1045C28.2258 37.1171 28.6153 37.126 28.9461 37.126C30.7886 37.126 33.6407 36.8974 33.6407 36.8974C34.5903 36.8402 34.7022 38.2665 33.7537 38.3814C33.7537 38.3814 32.7994 38.4962 31.7375 38.5531L38.1523 58.0666L42.0073 46.2426L39.2628 38.5524C38.3142 38.4955 37.4156 38.3807 37.4156 38.3807C36.4663 38.3238 36.5776 36.8395 37.5268 36.8967C37.5268 36.8967 40.4359 37.1254 42.1668 37.1254C44.009 37.1254 46.8614 36.8967 46.8614 36.8967C47.8117 36.8395 47.9233 38.2658 46.9744 38.3807C46.9744 38.3807 46.0181 38.4955 44.9582 38.5524L51.3241 57.9181L53.0811 51.9134C53.8426 49.4217 54.4222 47.632 54.4222 46.0897Z" fill="#464342"/>
<path d="M42.8399 48.5742L37.5547 64.2806C39.1327 64.7551 40.8016 65.0146 42.5308 65.0146C44.5822 65.0146 46.5494 64.6519 48.3805 63.9934C48.3332 63.9163 48.2903 63.8343 48.2551 63.7452L42.8399 48.5742Z" fill="#464342"/>
<path d="M57.9921 38.3555C58.0678 38.9293 58.1108 39.5453 58.1108 40.2079C58.1108 42.036 57.7769 44.0911 56.7714 46.6607L51.3906 62.5707C56.6276 59.4475 60.15 53.6451 60.15 46.999C60.1504 43.8669 59.368 40.9216 57.9921 38.3555Z" fill="#464342"/>
<path d="M42.5341 26C31.2119 26 22 35.4203 22 46.9995C22 58.5801 31.2119 68 42.5341 68C53.856 68 63.0692 58.5801 63.0692 46.9995C63.0689 35.4203 53.856 26 42.5341 26ZM42.5341 67.0374C31.7311 67.0374 22.9415 58.0484 22.9415 46.9995C22.9415 35.9513 31.7308 26.9629 42.5341 26.9629C53.3368 26.9629 62.1257 35.9513 62.1257 46.9995C62.1257 58.0484 53.3368 67.0374 42.5341 67.0374Z" fill="#464342"/>
</g>
<defs>
<clipPath id="clip0_1059_3355">
<rect width="181" height="42" fill="white" transform="translate(22 26)"/>
</clipPath>
</defs>
</svg>
